%TF.GenerationSoftware,KiCad,Pcbnew,5.1.6-c6e7f7d~87~ubuntu19.10.1*%
%TF.CreationDate,2021-05-11T16:11:10+01:00*%
%TF.ProjectId,Auto Pump,4175746f-2050-4756-9d70-2e6b69636164,rev?*%
%TF.SameCoordinates,Original*%
%TF.FileFunction,Soldermask,Top*%
%TF.FilePolarity,Negative*%
%FSLAX46Y46*%
G04 Gerber Fmt 4.6, Leading zero omitted, Abs format (unit mm)*
G04 Created by KiCad (PCBNEW 5.1.6-c6e7f7d~87~ubuntu19.10.1) date 2021-05-11 16:11:10*
%MOMM*%
%LPD*%
G01*
G04 APERTURE LIST*
%ADD10R,1.900000X1.900000*%
%ADD11O,1.900000X1.900000*%
%ADD12R,1.800000X1.800000*%
%ADD13O,1.800000X1.800000*%
%ADD14O,1.150000X1.600000*%
%ADD15R,1.150000X1.600000*%
%ADD16C,1.700000*%
%ADD17O,1.700000X1.700000*%
%ADD18O,2.100000X1.700000*%
%ADD19R,2.100000X2.100000*%
G04 APERTURE END LIST*
D10*
%TO.C,D1*%
X158218000Y-111098000D03*
D11*
X158218000Y-98398000D03*
%TD*%
D12*
%TO.C,J1*%
X120396000Y-91694000D03*
D13*
X120396000Y-94234000D03*
%TD*%
%TO.C,J2*%
X106426000Y-104564000D03*
D12*
X106426000Y-102024000D03*
%TD*%
%TO.C,J3*%
X162968000Y-110598000D03*
D13*
X162968000Y-113138000D03*
%TD*%
%TO.C,J4*%
X162968000Y-121638000D03*
D12*
X162968000Y-119098000D03*
%TD*%
%TO.C,J5*%
X163068000Y-128016000D03*
D13*
X163068000Y-130556000D03*
%TD*%
%TO.C,J6*%
X162968000Y-101638000D03*
D12*
X162968000Y-99098000D03*
%TD*%
%TO.C,J7*%
X106426000Y-91694000D03*
D13*
X106426000Y-94234000D03*
%TD*%
D14*
%TO.C,Q1*%
X152654000Y-106426000D03*
X153924000Y-106426000D03*
D15*
X151384000Y-106426000D03*
%TD*%
D16*
%TO.C,R1*%
X152654000Y-117856000D03*
D17*
X139954000Y-117856000D03*
%TD*%
%TO.C,R2*%
X139954000Y-122936000D03*
D16*
X152654000Y-122936000D03*
%TD*%
%TO.C,R3*%
X152734000Y-128016000D03*
D17*
X140034000Y-128016000D03*
%TD*%
%TO.C,R4*%
X139954000Y-112776000D03*
D16*
X152654000Y-112776000D03*
%TD*%
D18*
%TO.C,U1*%
X113105001Y-110085001D03*
D19*
X113105001Y-107545001D03*
D18*
X113105001Y-112625001D03*
X113105001Y-115165001D03*
X113105001Y-117705001D03*
X113105001Y-120245001D03*
X113105001Y-122785001D03*
X113105001Y-125325001D03*
X135965001Y-125325001D03*
X135965001Y-122785001D03*
X135965001Y-120245001D03*
X135965001Y-117705001D03*
X135965001Y-115165001D03*
X135965001Y-112625001D03*
X135965001Y-110085001D03*
X135965001Y-107545001D03*
%TD*%
M02*
