%TF.GenerationSoftware,KiCad,Pcbnew,5.1.6-c6e7f7d~87~ubuntu19.10.1*%
%TF.CreationDate,2021-05-11T16:11:10+01:00*%
%TF.ProjectId,Auto Pump,4175746f-2050-4756-9d70-2e6b69636164,rev?*%
%TF.SameCoordinates,Original*%
%TF.FileFunction,Copper,L2,Bot*%
%TF.FilePolarity,Positive*%
%FSLAX46Y46*%
G04 Gerber Fmt 4.6, Leading zero omitted, Abs format (unit mm)*
G04 Created by KiCad (PCBNEW 5.1.6-c6e7f7d~87~ubuntu19.10.1) date 2021-05-11 16:11:10*
%MOMM*%
%LPD*%
G01*
G04 APERTURE LIST*
%TA.AperFunction,ComponentPad*%
%ADD10R,1.800000X1.800000*%
%TD*%
%TA.AperFunction,ComponentPad*%
%ADD11O,1.800000X1.800000*%
%TD*%
%TA.AperFunction,ComponentPad*%
%ADD12R,1.700000X1.700000*%
%TD*%
%TA.AperFunction,ComponentPad*%
%ADD13O,1.700000X1.700000*%
%TD*%
%TA.AperFunction,ComponentPad*%
%ADD14O,1.050000X1.500000*%
%TD*%
%TA.AperFunction,ComponentPad*%
%ADD15R,1.050000X1.500000*%
%TD*%
%TA.AperFunction,ComponentPad*%
%ADD16C,1.600000*%
%TD*%
%TA.AperFunction,ComponentPad*%
%ADD17O,1.600000X1.600000*%
%TD*%
%TA.AperFunction,ComponentPad*%
%ADD18O,2.000000X1.600000*%
%TD*%
%TA.AperFunction,ComponentPad*%
%ADD19R,2.000000X2.000000*%
%TD*%
%TA.AperFunction,Conductor*%
%ADD20C,0.250000*%
%TD*%
%TA.AperFunction,Conductor*%
%ADD21C,0.254000*%
%TD*%
G04 APERTURE END LIST*
D10*
%TO.P,D1,1*%
%TO.N,+12V*%
X158218000Y-111098000D03*
D11*
%TO.P,D1,2*%
%TO.N,Net-(D1-Pad2)*%
X158218000Y-98398000D03*
%TD*%
D12*
%TO.P,J1,1*%
%TO.N,+12V*%
X120396000Y-91694000D03*
D13*
%TO.P,J1,2*%
%TO.N,GND*%
X120396000Y-94234000D03*
%TD*%
%TO.P,J2,2*%
%TO.N,GND*%
X106426000Y-104564000D03*
D12*
%TO.P,J2,1*%
%TO.N,+5V*%
X106426000Y-102024000D03*
%TD*%
%TO.P,J3,1*%
%TO.N,Net-(J3-Pad1)*%
X162968000Y-110598000D03*
D13*
%TO.P,J3,2*%
%TO.N,+3V3*%
X162968000Y-113138000D03*
%TD*%
%TO.P,J4,2*%
%TO.N,+3V3*%
X162968000Y-121638000D03*
D12*
%TO.P,J4,1*%
%TO.N,Net-(J4-Pad1)*%
X162968000Y-119098000D03*
%TD*%
%TO.P,J5,1*%
%TO.N,Net-(J5-Pad1)*%
X163068000Y-128016000D03*
D13*
%TO.P,J5,2*%
%TO.N,+3V3*%
X163068000Y-130556000D03*
%TD*%
%TO.P,J6,2*%
%TO.N,+12V*%
X162968000Y-101638000D03*
D12*
%TO.P,J6,1*%
%TO.N,Net-(D1-Pad2)*%
X162968000Y-99098000D03*
%TD*%
%TO.P,J7,1*%
%TO.N,+12V*%
X106426000Y-91694000D03*
D13*
%TO.P,J7,2*%
%TO.N,GND*%
X106426000Y-94234000D03*
%TD*%
D14*
%TO.P,Q1,2*%
%TO.N,Net-(Q1-Pad2)*%
X152654000Y-106426000D03*
%TO.P,Q1,3*%
%TO.N,Net-(D1-Pad2)*%
X153924000Y-106426000D03*
D15*
%TO.P,Q1,1*%
%TO.N,GND*%
X151384000Y-106426000D03*
%TD*%
D16*
%TO.P,R1,1*%
%TO.N,Net-(J3-Pad1)*%
X152654000Y-117856000D03*
D17*
%TO.P,R1,2*%
%TO.N,GND*%
X139954000Y-117856000D03*
%TD*%
%TO.P,R2,2*%
%TO.N,GND*%
X139954000Y-122936000D03*
D16*
%TO.P,R2,1*%
%TO.N,Net-(J4-Pad1)*%
X152654000Y-122936000D03*
%TD*%
%TO.P,R3,1*%
%TO.N,Net-(J5-Pad1)*%
X152734000Y-128016000D03*
D17*
%TO.P,R3,2*%
%TO.N,GND*%
X140034000Y-128016000D03*
%TD*%
%TO.P,R4,2*%
%TO.N,Net-(R4-Pad2)*%
X139954000Y-112776000D03*
D16*
%TO.P,R4,1*%
%TO.N,Net-(Q1-Pad2)*%
X152654000Y-112776000D03*
%TD*%
D18*
%TO.P,U1,2*%
%TO.N,Net-(U1-Pad2)*%
X113105001Y-110085001D03*
D19*
%TO.P,U1,1*%
%TO.N,Net-(U1-Pad1)*%
X113105001Y-107545001D03*
D18*
%TO.P,U1,3*%
%TO.N,Net-(U1-Pad3)*%
X113105001Y-112625001D03*
%TO.P,U1,4*%
%TO.N,Net-(U1-Pad4)*%
X113105001Y-115165001D03*
%TO.P,U1,5*%
%TO.N,Net-(U1-Pad5)*%
X113105001Y-117705001D03*
%TO.P,U1,6*%
%TO.N,Net-(U1-Pad6)*%
X113105001Y-120245001D03*
%TO.P,U1,7*%
%TO.N,Net-(U1-Pad7)*%
X113105001Y-122785001D03*
%TO.P,U1,8*%
%TO.N,+3V3*%
X113105001Y-125325001D03*
%TO.P,U1,9*%
%TO.N,+5V*%
X135965001Y-125325001D03*
%TO.P,U1,10*%
%TO.N,GND*%
X135965001Y-122785001D03*
%TO.P,U1,11*%
%TO.N,Net-(J5-Pad1)*%
X135965001Y-120245001D03*
%TO.P,U1,12*%
%TO.N,Net-(J4-Pad1)*%
X135965001Y-117705001D03*
%TO.P,U1,13*%
%TO.N,Net-(J3-Pad1)*%
X135965001Y-115165001D03*
%TO.P,U1,14*%
%TO.N,Net-(R4-Pad2)*%
X135965001Y-112625001D03*
%TO.P,U1,15*%
%TO.N,Net-(U1-Pad15)*%
X135965001Y-110085001D03*
%TO.P,U1,16*%
%TO.N,Net-(U1-Pad16)*%
X135965001Y-107545001D03*
%TD*%
D20*
%TO.N,+5V*%
X112522000Y-129286000D02*
X132004002Y-129286000D01*
X109728000Y-126492000D02*
X112522000Y-129286000D01*
X132004002Y-129286000D02*
X135965001Y-125325001D01*
X109728000Y-103378000D02*
X109728000Y-126492000D01*
X108374000Y-102024000D02*
X109728000Y-103378000D01*
X106426000Y-102024000D02*
X108374000Y-102024000D01*
%TD*%
D21*
%TO.N,GND*%
G36*
X169495001Y-136729000D02*
G01*
X100253000Y-136729000D01*
X100253000Y-104920890D01*
X104984524Y-104920890D01*
X105029175Y-105068099D01*
X105154359Y-105330920D01*
X105328412Y-105564269D01*
X105544645Y-105759178D01*
X105794748Y-105908157D01*
X106069109Y-106005481D01*
X106299000Y-105884814D01*
X106299000Y-104691000D01*
X106553000Y-104691000D01*
X106553000Y-105884814D01*
X106782891Y-106005481D01*
X107057252Y-105908157D01*
X107307355Y-105759178D01*
X107523588Y-105564269D01*
X107697641Y-105330920D01*
X107822825Y-105068099D01*
X107867476Y-104920890D01*
X107746155Y-104691000D01*
X106553000Y-104691000D01*
X106299000Y-104691000D01*
X105105845Y-104691000D01*
X104984524Y-104920890D01*
X100253000Y-104920890D01*
X100253000Y-101174000D01*
X104937928Y-101174000D01*
X104937928Y-102874000D01*
X104950188Y-102998482D01*
X104986498Y-103118180D01*
X105045463Y-103228494D01*
X105124815Y-103325185D01*
X105221506Y-103404537D01*
X105331820Y-103463502D01*
X105412466Y-103487966D01*
X105328412Y-103563731D01*
X105154359Y-103797080D01*
X105029175Y-104059901D01*
X104984524Y-104207110D01*
X105105845Y-104437000D01*
X106299000Y-104437000D01*
X106299000Y-104417000D01*
X106553000Y-104417000D01*
X106553000Y-104437000D01*
X107746155Y-104437000D01*
X107867476Y-104207110D01*
X107822825Y-104059901D01*
X107697641Y-103797080D01*
X107523588Y-103563731D01*
X107439534Y-103487966D01*
X107520180Y-103463502D01*
X107630494Y-103404537D01*
X107727185Y-103325185D01*
X107806537Y-103228494D01*
X107865502Y-103118180D01*
X107901812Y-102998482D01*
X107914072Y-102874000D01*
X107914072Y-102784000D01*
X108059199Y-102784000D01*
X108968000Y-103692802D01*
X108968001Y-126454667D01*
X108964324Y-126492000D01*
X108978998Y-126640985D01*
X109022454Y-126784246D01*
X109093026Y-126916276D01*
X109164201Y-127003002D01*
X109188000Y-127032001D01*
X109216998Y-127055799D01*
X111958201Y-129797003D01*
X111981999Y-129826001D01*
X112097724Y-129920974D01*
X112229753Y-129991546D01*
X112373014Y-130035003D01*
X112484667Y-130046000D01*
X112484675Y-130046000D01*
X112522000Y-130049676D01*
X112559325Y-130046000D01*
X131966680Y-130046000D01*
X132004002Y-130049676D01*
X132041324Y-130046000D01*
X132041335Y-130046000D01*
X132152988Y-130035003D01*
X132296249Y-129991546D01*
X132428278Y-129920974D01*
X132544003Y-129826001D01*
X132567806Y-129796997D01*
X133999764Y-128365039D01*
X138642096Y-128365039D01*
X138682754Y-128499087D01*
X138802963Y-128753420D01*
X138970481Y-128979414D01*
X139178869Y-129168385D01*
X139420119Y-129313070D01*
X139684960Y-129407909D01*
X139907000Y-129286624D01*
X139907000Y-128143000D01*
X140161000Y-128143000D01*
X140161000Y-129286624D01*
X140383040Y-129407909D01*
X140647881Y-129313070D01*
X140889131Y-129168385D01*
X141097519Y-128979414D01*
X141265037Y-128753420D01*
X141385246Y-128499087D01*
X141425904Y-128365039D01*
X141303915Y-128143000D01*
X140161000Y-128143000D01*
X139907000Y-128143000D01*
X138764085Y-128143000D01*
X138642096Y-128365039D01*
X133999764Y-128365039D01*
X134697842Y-127666961D01*
X138642096Y-127666961D01*
X138764085Y-127889000D01*
X139907000Y-127889000D01*
X139907000Y-126745376D01*
X140161000Y-126745376D01*
X140161000Y-127889000D01*
X141303915Y-127889000D01*
X141311790Y-127874665D01*
X151299000Y-127874665D01*
X151299000Y-128157335D01*
X151354147Y-128434574D01*
X151462320Y-128695727D01*
X151619363Y-128930759D01*
X151819241Y-129130637D01*
X152054273Y-129287680D01*
X152315426Y-129395853D01*
X152592665Y-129451000D01*
X152875335Y-129451000D01*
X153152574Y-129395853D01*
X153413727Y-129287680D01*
X153648759Y-129130637D01*
X153848637Y-128930759D01*
X154005680Y-128695727D01*
X154113853Y-128434574D01*
X154169000Y-128157335D01*
X154169000Y-127874665D01*
X154113853Y-127597426D01*
X154005680Y-127336273D01*
X153891908Y-127166000D01*
X161579928Y-127166000D01*
X161579928Y-128866000D01*
X161592188Y-128990482D01*
X161628498Y-129110180D01*
X161687463Y-129220494D01*
X161766815Y-129317185D01*
X161863506Y-129396537D01*
X161973820Y-129455502D01*
X162046380Y-129477513D01*
X161914525Y-129609368D01*
X161752010Y-129852589D01*
X161640068Y-130122842D01*
X161583000Y-130409740D01*
X161583000Y-130702260D01*
X161640068Y-130989158D01*
X161752010Y-131259411D01*
X161914525Y-131502632D01*
X162121368Y-131709475D01*
X162364589Y-131871990D01*
X162634842Y-131983932D01*
X162921740Y-132041000D01*
X163214260Y-132041000D01*
X163501158Y-131983932D01*
X163771411Y-131871990D01*
X164014632Y-131709475D01*
X164221475Y-131502632D01*
X164383990Y-131259411D01*
X164495932Y-130989158D01*
X164553000Y-130702260D01*
X164553000Y-130409740D01*
X164495932Y-130122842D01*
X164383990Y-129852589D01*
X164221475Y-129609368D01*
X164089620Y-129477513D01*
X164162180Y-129455502D01*
X164272494Y-129396537D01*
X164369185Y-129317185D01*
X164448537Y-129220494D01*
X164507502Y-129110180D01*
X164543812Y-128990482D01*
X164556072Y-128866000D01*
X164556072Y-127166000D01*
X164543812Y-127041518D01*
X164507502Y-126921820D01*
X164448537Y-126811506D01*
X164369185Y-126714815D01*
X164272494Y-126635463D01*
X164162180Y-126576498D01*
X164042482Y-126540188D01*
X163918000Y-126527928D01*
X162218000Y-126527928D01*
X162093518Y-126540188D01*
X161973820Y-126576498D01*
X161863506Y-126635463D01*
X161766815Y-126714815D01*
X161687463Y-126811506D01*
X161628498Y-126921820D01*
X161592188Y-127041518D01*
X161579928Y-127166000D01*
X153891908Y-127166000D01*
X153848637Y-127101241D01*
X153648759Y-126901363D01*
X153413727Y-126744320D01*
X153152574Y-126636147D01*
X152875335Y-126581000D01*
X152592665Y-126581000D01*
X152315426Y-126636147D01*
X152054273Y-126744320D01*
X151819241Y-126901363D01*
X151619363Y-127101241D01*
X151462320Y-127336273D01*
X151354147Y-127597426D01*
X151299000Y-127874665D01*
X141311790Y-127874665D01*
X141425904Y-127666961D01*
X141385246Y-127532913D01*
X141265037Y-127278580D01*
X141097519Y-127052586D01*
X140889131Y-126863615D01*
X140647881Y-126718930D01*
X140383040Y-126624091D01*
X140161000Y-126745376D01*
X139907000Y-126745376D01*
X139684960Y-126624091D01*
X139420119Y-126718930D01*
X139178869Y-126863615D01*
X138970481Y-127052586D01*
X138802963Y-127278580D01*
X138682754Y-127532913D01*
X138642096Y-127666961D01*
X134697842Y-127666961D01*
X135612846Y-126751958D01*
X135694509Y-126760001D01*
X136235493Y-126760001D01*
X136446310Y-126739237D01*
X136716809Y-126657183D01*
X136966102Y-126523933D01*
X137184609Y-126344609D01*
X137363933Y-126126102D01*
X137497183Y-125876809D01*
X137579237Y-125606310D01*
X137606944Y-125325001D01*
X137579237Y-125043692D01*
X137497183Y-124773193D01*
X137363933Y-124523900D01*
X137184609Y-124305393D01*
X136966102Y-124126069D01*
X136836656Y-124056879D01*
X136854228Y-124049431D01*
X137087663Y-123890674D01*
X137285640Y-123689426D01*
X137440552Y-123453422D01*
X137508688Y-123285039D01*
X138562096Y-123285039D01*
X138602754Y-123419087D01*
X138722963Y-123673420D01*
X138890481Y-123899414D01*
X139098869Y-124088385D01*
X139340119Y-124233070D01*
X139604960Y-124327909D01*
X139827000Y-124206624D01*
X139827000Y-123063000D01*
X140081000Y-123063000D01*
X140081000Y-124206624D01*
X140303040Y-124327909D01*
X140567881Y-124233070D01*
X140809131Y-124088385D01*
X141017519Y-123899414D01*
X141185037Y-123673420D01*
X141305246Y-123419087D01*
X141345904Y-123285039D01*
X141223915Y-123063000D01*
X140081000Y-123063000D01*
X139827000Y-123063000D01*
X138684085Y-123063000D01*
X138562096Y-123285039D01*
X137508688Y-123285039D01*
X137546445Y-123191731D01*
X137556905Y-123134040D01*
X137434916Y-122912001D01*
X136092001Y-122912001D01*
X136092001Y-122932001D01*
X135838001Y-122932001D01*
X135838001Y-122912001D01*
X134495086Y-122912001D01*
X134373097Y-123134040D01*
X134383557Y-123191731D01*
X134489450Y-123453422D01*
X134644362Y-123689426D01*
X134842339Y-123890674D01*
X135075774Y-124049431D01*
X135093346Y-124056879D01*
X134963900Y-124126069D01*
X134745393Y-124305393D01*
X134566069Y-124523900D01*
X134432819Y-124773193D01*
X134350765Y-125043692D01*
X134323058Y-125325001D01*
X134350765Y-125606310D01*
X134410842Y-125804359D01*
X131689201Y-128526000D01*
X112836802Y-128526000D01*
X110488000Y-126177199D01*
X110488000Y-103415322D01*
X110491676Y-103377999D01*
X110488000Y-103340676D01*
X110488000Y-103340667D01*
X110477003Y-103229014D01*
X110433546Y-103085753D01*
X110362974Y-102953724D01*
X110268001Y-102837999D01*
X110239004Y-102814202D01*
X108937804Y-101513003D01*
X108914001Y-101483999D01*
X108798276Y-101389026D01*
X108666247Y-101318454D01*
X108522986Y-101274997D01*
X108411333Y-101264000D01*
X108411322Y-101264000D01*
X108374000Y-101260324D01*
X108336678Y-101264000D01*
X107914072Y-101264000D01*
X107914072Y-101174000D01*
X107901812Y-101049518D01*
X107865502Y-100929820D01*
X107806537Y-100819506D01*
X107727185Y-100722815D01*
X107630494Y-100643463D01*
X107520180Y-100584498D01*
X107400482Y-100548188D01*
X107276000Y-100535928D01*
X105576000Y-100535928D01*
X105451518Y-100548188D01*
X105331820Y-100584498D01*
X105221506Y-100643463D01*
X105124815Y-100722815D01*
X105045463Y-100819506D01*
X104986498Y-100929820D01*
X104950188Y-101049518D01*
X104937928Y-101174000D01*
X100253000Y-101174000D01*
X100253000Y-96520000D01*
X110617000Y-96520000D01*
X110617000Y-105918000D01*
X110619440Y-105942776D01*
X110626667Y-105966601D01*
X110638403Y-105988557D01*
X110654197Y-106007803D01*
X110673443Y-106023597D01*
X110695399Y-106035333D01*
X110719224Y-106042560D01*
X110744000Y-106045000D01*
X111713299Y-106045000D01*
X111653816Y-106093816D01*
X111574464Y-106190507D01*
X111515499Y-106300821D01*
X111479189Y-106420519D01*
X111466929Y-106545001D01*
X111466929Y-108545001D01*
X111479189Y-108669483D01*
X111515499Y-108789181D01*
X111574464Y-108899495D01*
X111653816Y-108996186D01*
X111750507Y-109075538D01*
X111838477Y-109122560D01*
X111706069Y-109283900D01*
X111572819Y-109533193D01*
X111490765Y-109803692D01*
X111463058Y-110085001D01*
X111490765Y-110366310D01*
X111572819Y-110636809D01*
X111706069Y-110886102D01*
X111885393Y-111104609D01*
X112103900Y-111283933D01*
X112236859Y-111355001D01*
X112103900Y-111426069D01*
X111885393Y-111605393D01*
X111706069Y-111823900D01*
X111572819Y-112073193D01*
X111490765Y-112343692D01*
X111463058Y-112625001D01*
X111490765Y-112906310D01*
X111572819Y-113176809D01*
X111706069Y-113426102D01*
X111885393Y-113644609D01*
X112103900Y-113823933D01*
X112236859Y-113895001D01*
X112103900Y-113966069D01*
X111885393Y-114145393D01*
X111706069Y-114363900D01*
X111572819Y-114613193D01*
X111490765Y-114883692D01*
X111463058Y-115165001D01*
X111490765Y-115446310D01*
X111572819Y-115716809D01*
X111706069Y-115966102D01*
X111885393Y-116184609D01*
X112103900Y-116363933D01*
X112236859Y-116435001D01*
X112103900Y-116506069D01*
X111885393Y-116685393D01*
X111706069Y-116903900D01*
X111572819Y-117153193D01*
X111490765Y-117423692D01*
X111463058Y-117705001D01*
X111490765Y-117986310D01*
X111572819Y-118256809D01*
X111706069Y-118506102D01*
X111885393Y-118724609D01*
X112103900Y-118903933D01*
X112236859Y-118975001D01*
X112103900Y-119046069D01*
X111885393Y-119225393D01*
X111706069Y-119443900D01*
X111572819Y-119693193D01*
X111490765Y-119963692D01*
X111463058Y-120245001D01*
X111490765Y-120526310D01*
X111572819Y-120796809D01*
X111706069Y-121046102D01*
X111885393Y-121264609D01*
X112103900Y-121443933D01*
X112236859Y-121515001D01*
X112103900Y-121586069D01*
X111885393Y-121765393D01*
X111706069Y-121983900D01*
X111572819Y-122233193D01*
X111490765Y-122503692D01*
X111463058Y-122785001D01*
X111490765Y-123066310D01*
X111572819Y-123336809D01*
X111706069Y-123586102D01*
X111885393Y-123804609D01*
X112103900Y-123983933D01*
X112236859Y-124055001D01*
X112103900Y-124126069D01*
X111885393Y-124305393D01*
X111706069Y-124523900D01*
X111572819Y-124773193D01*
X111490765Y-125043692D01*
X111463058Y-125325001D01*
X111490765Y-125606310D01*
X111572819Y-125876809D01*
X111706069Y-126126102D01*
X111885393Y-126344609D01*
X112103900Y-126523933D01*
X112353193Y-126657183D01*
X112623692Y-126739237D01*
X112834509Y-126760001D01*
X113375493Y-126760001D01*
X113586310Y-126739237D01*
X113856809Y-126657183D01*
X114106102Y-126523933D01*
X114324609Y-126344609D01*
X114503933Y-126126102D01*
X114637183Y-125876809D01*
X114719237Y-125606310D01*
X114746944Y-125325001D01*
X114719237Y-125043692D01*
X114637183Y-124773193D01*
X114503933Y-124523900D01*
X114324609Y-124305393D01*
X114106102Y-124126069D01*
X113973143Y-124055001D01*
X114106102Y-123983933D01*
X114324609Y-123804609D01*
X114503933Y-123586102D01*
X114637183Y-123336809D01*
X114719237Y-123066310D01*
X114746944Y-122785001D01*
X114719237Y-122503692D01*
X114637183Y-122233193D01*
X114503933Y-121983900D01*
X114324609Y-121765393D01*
X114106102Y-121586069D01*
X113973143Y-121515001D01*
X114106102Y-121443933D01*
X114324609Y-121264609D01*
X114503933Y-121046102D01*
X114637183Y-120796809D01*
X114719237Y-120526310D01*
X114746944Y-120245001D01*
X114719237Y-119963692D01*
X114637183Y-119693193D01*
X114503933Y-119443900D01*
X114324609Y-119225393D01*
X114106102Y-119046069D01*
X113973143Y-118975001D01*
X114106102Y-118903933D01*
X114324609Y-118724609D01*
X114503933Y-118506102D01*
X114637183Y-118256809D01*
X114719237Y-117986310D01*
X114746944Y-117705001D01*
X114719237Y-117423692D01*
X114637183Y-117153193D01*
X114503933Y-116903900D01*
X114324609Y-116685393D01*
X114106102Y-116506069D01*
X113973143Y-116435001D01*
X114106102Y-116363933D01*
X114324609Y-116184609D01*
X114503933Y-115966102D01*
X114637183Y-115716809D01*
X114719237Y-115446310D01*
X114746944Y-115165001D01*
X114719237Y-114883692D01*
X114637183Y-114613193D01*
X114503933Y-114363900D01*
X114324609Y-114145393D01*
X114106102Y-113966069D01*
X113973143Y-113895001D01*
X114106102Y-113823933D01*
X114324609Y-113644609D01*
X114503933Y-113426102D01*
X114637183Y-113176809D01*
X114719237Y-112906310D01*
X114746944Y-112625001D01*
X114719237Y-112343692D01*
X114637183Y-112073193D01*
X114503933Y-111823900D01*
X114324609Y-111605393D01*
X114106102Y-111426069D01*
X113973143Y-111355001D01*
X114106102Y-111283933D01*
X114324609Y-111104609D01*
X114503933Y-110886102D01*
X114637183Y-110636809D01*
X114719237Y-110366310D01*
X114746944Y-110085001D01*
X114719237Y-109803692D01*
X114637183Y-109533193D01*
X114503933Y-109283900D01*
X114371525Y-109122560D01*
X114459495Y-109075538D01*
X114556186Y-108996186D01*
X114635538Y-108899495D01*
X114694503Y-108789181D01*
X114730813Y-108669483D01*
X114743073Y-108545001D01*
X114743073Y-107545001D01*
X134323058Y-107545001D01*
X134350765Y-107826310D01*
X134432819Y-108096809D01*
X134566069Y-108346102D01*
X134745393Y-108564609D01*
X134963900Y-108743933D01*
X135096859Y-108815001D01*
X134963900Y-108886069D01*
X134745393Y-109065393D01*
X134566069Y-109283900D01*
X134432819Y-109533193D01*
X134350765Y-109803692D01*
X134323058Y-110085001D01*
X134350765Y-110366310D01*
X134432819Y-110636809D01*
X134566069Y-110886102D01*
X134745393Y-111104609D01*
X134963900Y-111283933D01*
X135096859Y-111355001D01*
X134963900Y-111426069D01*
X134745393Y-111605393D01*
X134566069Y-111823900D01*
X134432819Y-112073193D01*
X134350765Y-112343692D01*
X134323058Y-112625001D01*
X134350765Y-112906310D01*
X134432819Y-113176809D01*
X134566069Y-113426102D01*
X134745393Y-113644609D01*
X134963900Y-113823933D01*
X135096859Y-113895001D01*
X134963900Y-113966069D01*
X134745393Y-114145393D01*
X134566069Y-114363900D01*
X134432819Y-114613193D01*
X134350765Y-114883692D01*
X134323058Y-115165001D01*
X134350765Y-115446310D01*
X134432819Y-115716809D01*
X134566069Y-115966102D01*
X134745393Y-116184609D01*
X134963900Y-116363933D01*
X135096859Y-116435001D01*
X134963900Y-116506069D01*
X134745393Y-116685393D01*
X134566069Y-116903900D01*
X134432819Y-117153193D01*
X134350765Y-117423692D01*
X134323058Y-117705001D01*
X134350765Y-117986310D01*
X134432819Y-118256809D01*
X134566069Y-118506102D01*
X134745393Y-118724609D01*
X134963900Y-118903933D01*
X135096859Y-118975001D01*
X134963900Y-119046069D01*
X134745393Y-119225393D01*
X134566069Y-119443900D01*
X134432819Y-119693193D01*
X134350765Y-119963692D01*
X134323058Y-120245001D01*
X134350765Y-120526310D01*
X134432819Y-120796809D01*
X134566069Y-121046102D01*
X134745393Y-121264609D01*
X134963900Y-121443933D01*
X135093346Y-121513123D01*
X135075774Y-121520571D01*
X134842339Y-121679328D01*
X134644362Y-121880576D01*
X134489450Y-122116580D01*
X134383557Y-122378271D01*
X134373097Y-122435962D01*
X134495086Y-122658001D01*
X135838001Y-122658001D01*
X135838001Y-122638001D01*
X136092001Y-122638001D01*
X136092001Y-122658001D01*
X137434916Y-122658001D01*
X137473945Y-122586961D01*
X138562096Y-122586961D01*
X138684085Y-122809000D01*
X139827000Y-122809000D01*
X139827000Y-121665376D01*
X140081000Y-121665376D01*
X140081000Y-122809000D01*
X141223915Y-122809000D01*
X141231790Y-122794665D01*
X151219000Y-122794665D01*
X151219000Y-123077335D01*
X151274147Y-123354574D01*
X151382320Y-123615727D01*
X151539363Y-123850759D01*
X151739241Y-124050637D01*
X151974273Y-124207680D01*
X152235426Y-124315853D01*
X152512665Y-124371000D01*
X152795335Y-124371000D01*
X153072574Y-124315853D01*
X153333727Y-124207680D01*
X153568759Y-124050637D01*
X153768637Y-123850759D01*
X153925680Y-123615727D01*
X154033853Y-123354574D01*
X154089000Y-123077335D01*
X154089000Y-122794665D01*
X154033853Y-122517426D01*
X153925680Y-122256273D01*
X153768637Y-122021241D01*
X153568759Y-121821363D01*
X153333727Y-121664320D01*
X153072574Y-121556147D01*
X152795335Y-121501000D01*
X152512665Y-121501000D01*
X152235426Y-121556147D01*
X151974273Y-121664320D01*
X151739241Y-121821363D01*
X151539363Y-122021241D01*
X151382320Y-122256273D01*
X151274147Y-122517426D01*
X151219000Y-122794665D01*
X141231790Y-122794665D01*
X141345904Y-122586961D01*
X141305246Y-122452913D01*
X141185037Y-122198580D01*
X141017519Y-121972586D01*
X140809131Y-121783615D01*
X140567881Y-121638930D01*
X140303040Y-121544091D01*
X140081000Y-121665376D01*
X139827000Y-121665376D01*
X139604960Y-121544091D01*
X139340119Y-121638930D01*
X139098869Y-121783615D01*
X138890481Y-121972586D01*
X138722963Y-122198580D01*
X138602754Y-122452913D01*
X138562096Y-122586961D01*
X137473945Y-122586961D01*
X137556905Y-122435962D01*
X137546445Y-122378271D01*
X137440552Y-122116580D01*
X137285640Y-121880576D01*
X137087663Y-121679328D01*
X136854228Y-121520571D01*
X136836656Y-121513123D01*
X136966102Y-121443933D01*
X137184609Y-121264609D01*
X137363933Y-121046102D01*
X137497183Y-120796809D01*
X137579237Y-120526310D01*
X137606944Y-120245001D01*
X137579237Y-119963692D01*
X137497183Y-119693193D01*
X137363933Y-119443900D01*
X137184609Y-119225393D01*
X136966102Y-119046069D01*
X136833143Y-118975001D01*
X136966102Y-118903933D01*
X137184609Y-118724609D01*
X137363933Y-118506102D01*
X137497183Y-118256809D01*
X137512887Y-118205039D01*
X138562096Y-118205039D01*
X138602754Y-118339087D01*
X138722963Y-118593420D01*
X138890481Y-118819414D01*
X139098869Y-119008385D01*
X139340119Y-119153070D01*
X139604960Y-119247909D01*
X139827000Y-119126624D01*
X139827000Y-117983000D01*
X140081000Y-117983000D01*
X140081000Y-119126624D01*
X140303040Y-119247909D01*
X140567881Y-119153070D01*
X140809131Y-119008385D01*
X141017519Y-118819414D01*
X141185037Y-118593420D01*
X141305246Y-118339087D01*
X141345904Y-118205039D01*
X141223915Y-117983000D01*
X140081000Y-117983000D01*
X139827000Y-117983000D01*
X138684085Y-117983000D01*
X138562096Y-118205039D01*
X137512887Y-118205039D01*
X137579237Y-117986310D01*
X137606944Y-117705001D01*
X137587439Y-117506961D01*
X138562096Y-117506961D01*
X138684085Y-117729000D01*
X139827000Y-117729000D01*
X139827000Y-116585376D01*
X140081000Y-116585376D01*
X140081000Y-117729000D01*
X141223915Y-117729000D01*
X141231790Y-117714665D01*
X151219000Y-117714665D01*
X151219000Y-117997335D01*
X151274147Y-118274574D01*
X151382320Y-118535727D01*
X151539363Y-118770759D01*
X151739241Y-118970637D01*
X151974273Y-119127680D01*
X152235426Y-119235853D01*
X152512665Y-119291000D01*
X152795335Y-119291000D01*
X153072574Y-119235853D01*
X153333727Y-119127680D01*
X153568759Y-118970637D01*
X153768637Y-118770759D01*
X153925680Y-118535727D01*
X154033853Y-118274574D01*
X154039138Y-118248000D01*
X161479928Y-118248000D01*
X161479928Y-119948000D01*
X161492188Y-120072482D01*
X161528498Y-120192180D01*
X161587463Y-120302494D01*
X161666815Y-120399185D01*
X161763506Y-120478537D01*
X161873820Y-120537502D01*
X161946380Y-120559513D01*
X161814525Y-120691368D01*
X161652010Y-120934589D01*
X161540068Y-121204842D01*
X161483000Y-121491740D01*
X161483000Y-121784260D01*
X161540068Y-122071158D01*
X161652010Y-122341411D01*
X161814525Y-122584632D01*
X162021368Y-122791475D01*
X162264589Y-122953990D01*
X162534842Y-123065932D01*
X162821740Y-123123000D01*
X163114260Y-123123000D01*
X163401158Y-123065932D01*
X163671411Y-122953990D01*
X163914632Y-122791475D01*
X164121475Y-122584632D01*
X164283990Y-122341411D01*
X164395932Y-122071158D01*
X164453000Y-121784260D01*
X164453000Y-121491740D01*
X164395932Y-121204842D01*
X164283990Y-120934589D01*
X164121475Y-120691368D01*
X163989620Y-120559513D01*
X164062180Y-120537502D01*
X164172494Y-120478537D01*
X164269185Y-120399185D01*
X164348537Y-120302494D01*
X164407502Y-120192180D01*
X164443812Y-120072482D01*
X164456072Y-119948000D01*
X164456072Y-118248000D01*
X164443812Y-118123518D01*
X164407502Y-118003820D01*
X164348537Y-117893506D01*
X164269185Y-117796815D01*
X164172494Y-117717463D01*
X164062180Y-117658498D01*
X163942482Y-117622188D01*
X163818000Y-117609928D01*
X162118000Y-117609928D01*
X161993518Y-117622188D01*
X161873820Y-117658498D01*
X161763506Y-117717463D01*
X161666815Y-117796815D01*
X161587463Y-117893506D01*
X161528498Y-118003820D01*
X161492188Y-118123518D01*
X161479928Y-118248000D01*
X154039138Y-118248000D01*
X154089000Y-117997335D01*
X154089000Y-117714665D01*
X154033853Y-117437426D01*
X153925680Y-117176273D01*
X153768637Y-116941241D01*
X153568759Y-116741363D01*
X153333727Y-116584320D01*
X153072574Y-116476147D01*
X152795335Y-116421000D01*
X152512665Y-116421000D01*
X152235426Y-116476147D01*
X151974273Y-116584320D01*
X151739241Y-116741363D01*
X151539363Y-116941241D01*
X151382320Y-117176273D01*
X151274147Y-117437426D01*
X151219000Y-117714665D01*
X141231790Y-117714665D01*
X141345904Y-117506961D01*
X141305246Y-117372913D01*
X141185037Y-117118580D01*
X141017519Y-116892586D01*
X140809131Y-116703615D01*
X140567881Y-116558930D01*
X140303040Y-116464091D01*
X140081000Y-116585376D01*
X139827000Y-116585376D01*
X139604960Y-116464091D01*
X139340119Y-116558930D01*
X139098869Y-116703615D01*
X138890481Y-116892586D01*
X138722963Y-117118580D01*
X138602754Y-117372913D01*
X138562096Y-117506961D01*
X137587439Y-117506961D01*
X137579237Y-117423692D01*
X137497183Y-117153193D01*
X137363933Y-116903900D01*
X137184609Y-116685393D01*
X136966102Y-116506069D01*
X136833143Y-116435001D01*
X136966102Y-116363933D01*
X137184609Y-116184609D01*
X137363933Y-115966102D01*
X137497183Y-115716809D01*
X137579237Y-115446310D01*
X137606944Y-115165001D01*
X137579237Y-114883692D01*
X137497183Y-114613193D01*
X137363933Y-114363900D01*
X137184609Y-114145393D01*
X136966102Y-113966069D01*
X136833143Y-113895001D01*
X136966102Y-113823933D01*
X137184609Y-113644609D01*
X137363933Y-113426102D01*
X137497183Y-113176809D01*
X137579237Y-112906310D01*
X137605992Y-112634665D01*
X138519000Y-112634665D01*
X138519000Y-112917335D01*
X138574147Y-113194574D01*
X138682320Y-113455727D01*
X138839363Y-113690759D01*
X139039241Y-113890637D01*
X139274273Y-114047680D01*
X139535426Y-114155853D01*
X139812665Y-114211000D01*
X140095335Y-114211000D01*
X140372574Y-114155853D01*
X140633727Y-114047680D01*
X140868759Y-113890637D01*
X141068637Y-113690759D01*
X141225680Y-113455727D01*
X141333853Y-113194574D01*
X141389000Y-112917335D01*
X141389000Y-112634665D01*
X151219000Y-112634665D01*
X151219000Y-112917335D01*
X151274147Y-113194574D01*
X151382320Y-113455727D01*
X151539363Y-113690759D01*
X151739241Y-113890637D01*
X151974273Y-114047680D01*
X152235426Y-114155853D01*
X152512665Y-114211000D01*
X152795335Y-114211000D01*
X153072574Y-114155853D01*
X153333727Y-114047680D01*
X153568759Y-113890637D01*
X153768637Y-113690759D01*
X153925680Y-113455727D01*
X154033853Y-113194574D01*
X154089000Y-112917335D01*
X154089000Y-112634665D01*
X154033853Y-112357426D01*
X153925680Y-112096273D01*
X153768637Y-111861241D01*
X153568759Y-111661363D01*
X153333727Y-111504320D01*
X153072574Y-111396147D01*
X152795335Y-111341000D01*
X152512665Y-111341000D01*
X152235426Y-111396147D01*
X151974273Y-111504320D01*
X151739241Y-111661363D01*
X151539363Y-111861241D01*
X151382320Y-112096273D01*
X151274147Y-112357426D01*
X151219000Y-112634665D01*
X141389000Y-112634665D01*
X141333853Y-112357426D01*
X141225680Y-112096273D01*
X141068637Y-111861241D01*
X140868759Y-111661363D01*
X140633727Y-111504320D01*
X140372574Y-111396147D01*
X140095335Y-111341000D01*
X139812665Y-111341000D01*
X139535426Y-111396147D01*
X139274273Y-111504320D01*
X139039241Y-111661363D01*
X138839363Y-111861241D01*
X138682320Y-112096273D01*
X138574147Y-112357426D01*
X138519000Y-112634665D01*
X137605992Y-112634665D01*
X137606944Y-112625001D01*
X137579237Y-112343692D01*
X137497183Y-112073193D01*
X137363933Y-111823900D01*
X137184609Y-111605393D01*
X136966102Y-111426069D01*
X136833143Y-111355001D01*
X136966102Y-111283933D01*
X137184609Y-111104609D01*
X137363933Y-110886102D01*
X137497183Y-110636809D01*
X137579237Y-110366310D01*
X137595814Y-110198000D01*
X156679928Y-110198000D01*
X156679928Y-111998000D01*
X156692188Y-112122482D01*
X156728498Y-112242180D01*
X156787463Y-112352494D01*
X156866815Y-112449185D01*
X156963506Y-112528537D01*
X157073820Y-112587502D01*
X157193518Y-112623812D01*
X157318000Y-112636072D01*
X159118000Y-112636072D01*
X159242482Y-112623812D01*
X159362180Y-112587502D01*
X159472494Y-112528537D01*
X159569185Y-112449185D01*
X159648537Y-112352494D01*
X159707502Y-112242180D01*
X159743812Y-112122482D01*
X159756072Y-111998000D01*
X159756072Y-110198000D01*
X159743812Y-110073518D01*
X159707502Y-109953820D01*
X159648537Y-109843506D01*
X159570158Y-109748000D01*
X161479928Y-109748000D01*
X161479928Y-111448000D01*
X161492188Y-111572482D01*
X161528498Y-111692180D01*
X161587463Y-111802494D01*
X161666815Y-111899185D01*
X161763506Y-111978537D01*
X161873820Y-112037502D01*
X161946380Y-112059513D01*
X161814525Y-112191368D01*
X161652010Y-112434589D01*
X161540068Y-112704842D01*
X161483000Y-112991740D01*
X161483000Y-113284260D01*
X161540068Y-113571158D01*
X161652010Y-113841411D01*
X161814525Y-114084632D01*
X162021368Y-114291475D01*
X162264589Y-114453990D01*
X162534842Y-114565932D01*
X162821740Y-114623000D01*
X163114260Y-114623000D01*
X163401158Y-114565932D01*
X163671411Y-114453990D01*
X163914632Y-114291475D01*
X164121475Y-114084632D01*
X164283990Y-113841411D01*
X164395932Y-113571158D01*
X164453000Y-113284260D01*
X164453000Y-112991740D01*
X164395932Y-112704842D01*
X164283990Y-112434589D01*
X164121475Y-112191368D01*
X163989620Y-112059513D01*
X164062180Y-112037502D01*
X164172494Y-111978537D01*
X164269185Y-111899185D01*
X164348537Y-111802494D01*
X164407502Y-111692180D01*
X164443812Y-111572482D01*
X164456072Y-111448000D01*
X164456072Y-109748000D01*
X164443812Y-109623518D01*
X164407502Y-109503820D01*
X164348537Y-109393506D01*
X164269185Y-109296815D01*
X164172494Y-109217463D01*
X164062180Y-109158498D01*
X163942482Y-109122188D01*
X163818000Y-109109928D01*
X162118000Y-109109928D01*
X161993518Y-109122188D01*
X161873820Y-109158498D01*
X161763506Y-109217463D01*
X161666815Y-109296815D01*
X161587463Y-109393506D01*
X161528498Y-109503820D01*
X161492188Y-109623518D01*
X161479928Y-109748000D01*
X159570158Y-109748000D01*
X159569185Y-109746815D01*
X159472494Y-109667463D01*
X159362180Y-109608498D01*
X159242482Y-109572188D01*
X159118000Y-109559928D01*
X157318000Y-109559928D01*
X157193518Y-109572188D01*
X157073820Y-109608498D01*
X156963506Y-109667463D01*
X156866815Y-109746815D01*
X156787463Y-109843506D01*
X156728498Y-109953820D01*
X156692188Y-110073518D01*
X156679928Y-110198000D01*
X137595814Y-110198000D01*
X137606944Y-110085001D01*
X137579237Y-109803692D01*
X137497183Y-109533193D01*
X137363933Y-109283900D01*
X137184609Y-109065393D01*
X136966102Y-108886069D01*
X136833143Y-108815001D01*
X136966102Y-108743933D01*
X137184609Y-108564609D01*
X137363933Y-108346102D01*
X137497183Y-108096809D01*
X137579237Y-107826310D01*
X137606944Y-107545001D01*
X137579237Y-107263692D01*
X137552637Y-107176000D01*
X150220928Y-107176000D01*
X150233188Y-107300482D01*
X150269498Y-107420180D01*
X150328463Y-107530494D01*
X150407815Y-107627185D01*
X150504506Y-107706537D01*
X150614820Y-107765502D01*
X150734518Y-107801812D01*
X150859000Y-107814072D01*
X151098250Y-107811000D01*
X151257000Y-107652250D01*
X151257000Y-106553000D01*
X150382750Y-106553000D01*
X150224000Y-106711750D01*
X150220928Y-107176000D01*
X137552637Y-107176000D01*
X137497183Y-106993193D01*
X137363933Y-106743900D01*
X137184609Y-106525393D01*
X136966102Y-106346069D01*
X136716809Y-106212819D01*
X136446310Y-106130765D01*
X136235493Y-106110001D01*
X135694509Y-106110001D01*
X135483692Y-106130765D01*
X135213193Y-106212819D01*
X134963900Y-106346069D01*
X134745393Y-106525393D01*
X134566069Y-106743900D01*
X134432819Y-106993193D01*
X134350765Y-107263692D01*
X134323058Y-107545001D01*
X114743073Y-107545001D01*
X114743073Y-106545001D01*
X114730813Y-106420519D01*
X114694503Y-106300821D01*
X114635538Y-106190507D01*
X114556186Y-106093816D01*
X114496703Y-106045000D01*
X137922000Y-106045000D01*
X137946776Y-106042560D01*
X137970601Y-106035333D01*
X137992557Y-106023597D01*
X138011803Y-106007803D01*
X138027597Y-105988557D01*
X138039333Y-105966601D01*
X138046560Y-105942776D01*
X138049000Y-105918000D01*
X138049000Y-105676000D01*
X150220928Y-105676000D01*
X150224000Y-106140250D01*
X150382750Y-106299000D01*
X151257000Y-106299000D01*
X151257000Y-106144022D01*
X151494000Y-106144022D01*
X151494000Y-106707979D01*
X151510785Y-106878400D01*
X151511000Y-106879109D01*
X151511000Y-107652250D01*
X151669750Y-107811000D01*
X151909000Y-107814072D01*
X152033482Y-107801812D01*
X152153180Y-107765502D01*
X152217902Y-107730907D01*
X152426601Y-107794215D01*
X152654000Y-107816612D01*
X152881400Y-107794215D01*
X153100060Y-107727885D01*
X153289001Y-107626894D01*
X153477941Y-107727885D01*
X153696601Y-107794215D01*
X153924000Y-107816612D01*
X154151400Y-107794215D01*
X154370060Y-107727885D01*
X154571579Y-107620171D01*
X154748212Y-107475212D01*
X154893171Y-107298579D01*
X155000885Y-107097059D01*
X155067215Y-106878399D01*
X155084000Y-106707978D01*
X155084000Y-106144021D01*
X155067215Y-105973600D01*
X155000885Y-105754940D01*
X154893171Y-105553421D01*
X154748212Y-105376788D01*
X154571578Y-105231829D01*
X154370059Y-105124115D01*
X154151399Y-105057785D01*
X153924000Y-105035388D01*
X153696600Y-105057785D01*
X153477940Y-105124115D01*
X153289000Y-105225106D01*
X153100059Y-105124115D01*
X152881399Y-105057785D01*
X152654000Y-105035388D01*
X152426600Y-105057785D01*
X152217902Y-105121093D01*
X152153180Y-105086498D01*
X152033482Y-105050188D01*
X151909000Y-105037928D01*
X151669750Y-105041000D01*
X151511000Y-105199750D01*
X151511000Y-105972892D01*
X151510785Y-105973601D01*
X151494000Y-106144022D01*
X151257000Y-106144022D01*
X151257000Y-105199750D01*
X151098250Y-105041000D01*
X150859000Y-105037928D01*
X150734518Y-105050188D01*
X150614820Y-105086498D01*
X150504506Y-105145463D01*
X150407815Y-105224815D01*
X150328463Y-105321506D01*
X150269498Y-105431820D01*
X150233188Y-105551518D01*
X150220928Y-105676000D01*
X138049000Y-105676000D01*
X138049000Y-98246816D01*
X156683000Y-98246816D01*
X156683000Y-98549184D01*
X156741989Y-98845743D01*
X156857701Y-99125095D01*
X157025688Y-99376505D01*
X157239495Y-99590312D01*
X157490905Y-99758299D01*
X157770257Y-99874011D01*
X158066816Y-99933000D01*
X158369184Y-99933000D01*
X158665743Y-99874011D01*
X158945095Y-99758299D01*
X159196505Y-99590312D01*
X159410312Y-99376505D01*
X159578299Y-99125095D01*
X159694011Y-98845743D01*
X159753000Y-98549184D01*
X159753000Y-98248000D01*
X161479928Y-98248000D01*
X161479928Y-99948000D01*
X161492188Y-100072482D01*
X161528498Y-100192180D01*
X161587463Y-100302494D01*
X161666815Y-100399185D01*
X161763506Y-100478537D01*
X161873820Y-100537502D01*
X161946380Y-100559513D01*
X161814525Y-100691368D01*
X161652010Y-100934589D01*
X161540068Y-101204842D01*
X161483000Y-101491740D01*
X161483000Y-101784260D01*
X161540068Y-102071158D01*
X161652010Y-102341411D01*
X161814525Y-102584632D01*
X162021368Y-102791475D01*
X162264589Y-102953990D01*
X162534842Y-103065932D01*
X162821740Y-103123000D01*
X163114260Y-103123000D01*
X163401158Y-103065932D01*
X163671411Y-102953990D01*
X163914632Y-102791475D01*
X164121475Y-102584632D01*
X164283990Y-102341411D01*
X164395932Y-102071158D01*
X164453000Y-101784260D01*
X164453000Y-101491740D01*
X164395932Y-101204842D01*
X164283990Y-100934589D01*
X164121475Y-100691368D01*
X163989620Y-100559513D01*
X164062180Y-100537502D01*
X164172494Y-100478537D01*
X164269185Y-100399185D01*
X164348537Y-100302494D01*
X164407502Y-100192180D01*
X164443812Y-100072482D01*
X164456072Y-99948000D01*
X164456072Y-98248000D01*
X164443812Y-98123518D01*
X164407502Y-98003820D01*
X164348537Y-97893506D01*
X164269185Y-97796815D01*
X164172494Y-97717463D01*
X164062180Y-97658498D01*
X163942482Y-97622188D01*
X163818000Y-97609928D01*
X162118000Y-97609928D01*
X161993518Y-97622188D01*
X161873820Y-97658498D01*
X161763506Y-97717463D01*
X161666815Y-97796815D01*
X161587463Y-97893506D01*
X161528498Y-98003820D01*
X161492188Y-98123518D01*
X161479928Y-98248000D01*
X159753000Y-98248000D01*
X159753000Y-98246816D01*
X159694011Y-97950257D01*
X159578299Y-97670905D01*
X159410312Y-97419495D01*
X159196505Y-97205688D01*
X158945095Y-97037701D01*
X158665743Y-96921989D01*
X158369184Y-96863000D01*
X158066816Y-96863000D01*
X157770257Y-96921989D01*
X157490905Y-97037701D01*
X157239495Y-97205688D01*
X157025688Y-97419495D01*
X156857701Y-97670905D01*
X156741989Y-97950257D01*
X156683000Y-98246816D01*
X138049000Y-98246816D01*
X138049000Y-96520000D01*
X138046560Y-96495224D01*
X138039333Y-96471399D01*
X138027597Y-96449443D01*
X138011803Y-96430197D01*
X137992557Y-96414403D01*
X137970601Y-96402667D01*
X137946776Y-96395440D01*
X137922000Y-96393000D01*
X110744000Y-96393000D01*
X110719224Y-96395440D01*
X110695399Y-96402667D01*
X110673443Y-96414403D01*
X110654197Y-96430197D01*
X110638403Y-96449443D01*
X110626667Y-96471399D01*
X110619440Y-96495224D01*
X110617000Y-96520000D01*
X100253000Y-96520000D01*
X100253000Y-94590890D01*
X104984524Y-94590890D01*
X105029175Y-94738099D01*
X105154359Y-95000920D01*
X105328412Y-95234269D01*
X105544645Y-95429178D01*
X105794748Y-95578157D01*
X106069109Y-95675481D01*
X106299000Y-95554814D01*
X106299000Y-94361000D01*
X106553000Y-94361000D01*
X106553000Y-95554814D01*
X106782891Y-95675481D01*
X107057252Y-95578157D01*
X107307355Y-95429178D01*
X107523588Y-95234269D01*
X107697641Y-95000920D01*
X107822825Y-94738099D01*
X107867476Y-94590890D01*
X118954524Y-94590890D01*
X118999175Y-94738099D01*
X119124359Y-95000920D01*
X119298412Y-95234269D01*
X119514645Y-95429178D01*
X119764748Y-95578157D01*
X120039109Y-95675481D01*
X120269000Y-95554814D01*
X120269000Y-94361000D01*
X120523000Y-94361000D01*
X120523000Y-95554814D01*
X120752891Y-95675481D01*
X121027252Y-95578157D01*
X121277355Y-95429178D01*
X121493588Y-95234269D01*
X121667641Y-95000920D01*
X121792825Y-94738099D01*
X121837476Y-94590890D01*
X121716155Y-94361000D01*
X120523000Y-94361000D01*
X120269000Y-94361000D01*
X119075845Y-94361000D01*
X118954524Y-94590890D01*
X107867476Y-94590890D01*
X107746155Y-94361000D01*
X106553000Y-94361000D01*
X106299000Y-94361000D01*
X105105845Y-94361000D01*
X104984524Y-94590890D01*
X100253000Y-94590890D01*
X100253000Y-90844000D01*
X104937928Y-90844000D01*
X104937928Y-92544000D01*
X104950188Y-92668482D01*
X104986498Y-92788180D01*
X105045463Y-92898494D01*
X105124815Y-92995185D01*
X105221506Y-93074537D01*
X105331820Y-93133502D01*
X105412466Y-93157966D01*
X105328412Y-93233731D01*
X105154359Y-93467080D01*
X105029175Y-93729901D01*
X104984524Y-93877110D01*
X105105845Y-94107000D01*
X106299000Y-94107000D01*
X106299000Y-94087000D01*
X106553000Y-94087000D01*
X106553000Y-94107000D01*
X107746155Y-94107000D01*
X107867476Y-93877110D01*
X107822825Y-93729901D01*
X107697641Y-93467080D01*
X107523588Y-93233731D01*
X107439534Y-93157966D01*
X107520180Y-93133502D01*
X107630494Y-93074537D01*
X107727185Y-92995185D01*
X107806537Y-92898494D01*
X107865502Y-92788180D01*
X107901812Y-92668482D01*
X107914072Y-92544000D01*
X107914072Y-90844000D01*
X118907928Y-90844000D01*
X118907928Y-92544000D01*
X118920188Y-92668482D01*
X118956498Y-92788180D01*
X119015463Y-92898494D01*
X119094815Y-92995185D01*
X119191506Y-93074537D01*
X119301820Y-93133502D01*
X119382466Y-93157966D01*
X119298412Y-93233731D01*
X119124359Y-93467080D01*
X118999175Y-93729901D01*
X118954524Y-93877110D01*
X119075845Y-94107000D01*
X120269000Y-94107000D01*
X120269000Y-94087000D01*
X120523000Y-94087000D01*
X120523000Y-94107000D01*
X121716155Y-94107000D01*
X121837476Y-93877110D01*
X121792825Y-93729901D01*
X121667641Y-93467080D01*
X121493588Y-93233731D01*
X121409534Y-93157966D01*
X121490180Y-93133502D01*
X121600494Y-93074537D01*
X121697185Y-92995185D01*
X121776537Y-92898494D01*
X121835502Y-92788180D01*
X121871812Y-92668482D01*
X121884072Y-92544000D01*
X121884072Y-90844000D01*
X121871812Y-90719518D01*
X121835502Y-90599820D01*
X121776537Y-90489506D01*
X121697185Y-90392815D01*
X121600494Y-90313463D01*
X121490180Y-90254498D01*
X121370482Y-90218188D01*
X121246000Y-90205928D01*
X119546000Y-90205928D01*
X119421518Y-90218188D01*
X119301820Y-90254498D01*
X119191506Y-90313463D01*
X119094815Y-90392815D01*
X119015463Y-90489506D01*
X118956498Y-90599820D01*
X118920188Y-90719518D01*
X118907928Y-90844000D01*
X107914072Y-90844000D01*
X107901812Y-90719518D01*
X107865502Y-90599820D01*
X107806537Y-90489506D01*
X107727185Y-90392815D01*
X107630494Y-90313463D01*
X107520180Y-90254498D01*
X107400482Y-90218188D01*
X107276000Y-90205928D01*
X105576000Y-90205928D01*
X105451518Y-90218188D01*
X105331820Y-90254498D01*
X105221506Y-90313463D01*
X105124815Y-90392815D01*
X105045463Y-90489506D01*
X104986498Y-90599820D01*
X104950188Y-90719518D01*
X104937928Y-90844000D01*
X100253000Y-90844000D01*
X100253000Y-87807000D01*
X169495000Y-87807000D01*
X169495001Y-136729000D01*
G37*
X169495001Y-136729000D02*
X100253000Y-136729000D01*
X100253000Y-104920890D01*
X104984524Y-104920890D01*
X105029175Y-105068099D01*
X105154359Y-105330920D01*
X105328412Y-105564269D01*
X105544645Y-105759178D01*
X105794748Y-105908157D01*
X106069109Y-106005481D01*
X106299000Y-105884814D01*
X106299000Y-104691000D01*
X106553000Y-104691000D01*
X106553000Y-105884814D01*
X106782891Y-106005481D01*
X107057252Y-105908157D01*
X107307355Y-105759178D01*
X107523588Y-105564269D01*
X107697641Y-105330920D01*
X107822825Y-105068099D01*
X107867476Y-104920890D01*
X107746155Y-104691000D01*
X106553000Y-104691000D01*
X106299000Y-104691000D01*
X105105845Y-104691000D01*
X104984524Y-104920890D01*
X100253000Y-104920890D01*
X100253000Y-101174000D01*
X104937928Y-101174000D01*
X104937928Y-102874000D01*
X104950188Y-102998482D01*
X104986498Y-103118180D01*
X105045463Y-103228494D01*
X105124815Y-103325185D01*
X105221506Y-103404537D01*
X105331820Y-103463502D01*
X105412466Y-103487966D01*
X105328412Y-103563731D01*
X105154359Y-103797080D01*
X105029175Y-104059901D01*
X104984524Y-104207110D01*
X105105845Y-104437000D01*
X106299000Y-104437000D01*
X106299000Y-104417000D01*
X106553000Y-104417000D01*
X106553000Y-104437000D01*
X107746155Y-104437000D01*
X107867476Y-104207110D01*
X107822825Y-104059901D01*
X107697641Y-103797080D01*
X107523588Y-103563731D01*
X107439534Y-103487966D01*
X107520180Y-103463502D01*
X107630494Y-103404537D01*
X107727185Y-103325185D01*
X107806537Y-103228494D01*
X107865502Y-103118180D01*
X107901812Y-102998482D01*
X107914072Y-102874000D01*
X107914072Y-102784000D01*
X108059199Y-102784000D01*
X108968000Y-103692802D01*
X108968001Y-126454667D01*
X108964324Y-126492000D01*
X108978998Y-126640985D01*
X109022454Y-126784246D01*
X109093026Y-126916276D01*
X109164201Y-127003002D01*
X109188000Y-127032001D01*
X109216998Y-127055799D01*
X111958201Y-129797003D01*
X111981999Y-129826001D01*
X112097724Y-129920974D01*
X112229753Y-129991546D01*
X112373014Y-130035003D01*
X112484667Y-130046000D01*
X112484675Y-130046000D01*
X112522000Y-130049676D01*
X112559325Y-130046000D01*
X131966680Y-130046000D01*
X132004002Y-130049676D01*
X132041324Y-130046000D01*
X132041335Y-130046000D01*
X132152988Y-130035003D01*
X132296249Y-129991546D01*
X132428278Y-129920974D01*
X132544003Y-129826001D01*
X132567806Y-129796997D01*
X133999764Y-128365039D01*
X138642096Y-128365039D01*
X138682754Y-128499087D01*
X138802963Y-128753420D01*
X138970481Y-128979414D01*
X139178869Y-129168385D01*
X139420119Y-129313070D01*
X139684960Y-129407909D01*
X139907000Y-129286624D01*
X139907000Y-128143000D01*
X140161000Y-128143000D01*
X140161000Y-129286624D01*
X140383040Y-129407909D01*
X140647881Y-129313070D01*
X140889131Y-129168385D01*
X141097519Y-128979414D01*
X141265037Y-128753420D01*
X141385246Y-128499087D01*
X141425904Y-128365039D01*
X141303915Y-128143000D01*
X140161000Y-128143000D01*
X139907000Y-128143000D01*
X138764085Y-128143000D01*
X138642096Y-128365039D01*
X133999764Y-128365039D01*
X134697842Y-127666961D01*
X138642096Y-127666961D01*
X138764085Y-127889000D01*
X139907000Y-127889000D01*
X139907000Y-126745376D01*
X140161000Y-126745376D01*
X140161000Y-127889000D01*
X141303915Y-127889000D01*
X141311790Y-127874665D01*
X151299000Y-127874665D01*
X151299000Y-128157335D01*
X151354147Y-128434574D01*
X151462320Y-128695727D01*
X151619363Y-128930759D01*
X151819241Y-129130637D01*
X152054273Y-129287680D01*
X152315426Y-129395853D01*
X152592665Y-129451000D01*
X152875335Y-129451000D01*
X153152574Y-129395853D01*
X153413727Y-129287680D01*
X153648759Y-129130637D01*
X153848637Y-128930759D01*
X154005680Y-128695727D01*
X154113853Y-128434574D01*
X154169000Y-128157335D01*
X154169000Y-127874665D01*
X154113853Y-127597426D01*
X154005680Y-127336273D01*
X153891908Y-127166000D01*
X161579928Y-127166000D01*
X161579928Y-128866000D01*
X161592188Y-128990482D01*
X161628498Y-129110180D01*
X161687463Y-129220494D01*
X161766815Y-129317185D01*
X161863506Y-129396537D01*
X161973820Y-129455502D01*
X162046380Y-129477513D01*
X161914525Y-129609368D01*
X161752010Y-129852589D01*
X161640068Y-130122842D01*
X161583000Y-130409740D01*
X161583000Y-130702260D01*
X161640068Y-130989158D01*
X161752010Y-131259411D01*
X161914525Y-131502632D01*
X162121368Y-131709475D01*
X162364589Y-131871990D01*
X162634842Y-131983932D01*
X162921740Y-132041000D01*
X163214260Y-132041000D01*
X163501158Y-131983932D01*
X163771411Y-131871990D01*
X164014632Y-131709475D01*
X164221475Y-131502632D01*
X164383990Y-131259411D01*
X164495932Y-130989158D01*
X164553000Y-130702260D01*
X164553000Y-130409740D01*
X164495932Y-130122842D01*
X164383990Y-129852589D01*
X164221475Y-129609368D01*
X164089620Y-129477513D01*
X164162180Y-129455502D01*
X164272494Y-129396537D01*
X164369185Y-129317185D01*
X164448537Y-129220494D01*
X164507502Y-129110180D01*
X164543812Y-128990482D01*
X164556072Y-128866000D01*
X164556072Y-127166000D01*
X164543812Y-127041518D01*
X164507502Y-126921820D01*
X164448537Y-126811506D01*
X164369185Y-126714815D01*
X164272494Y-126635463D01*
X164162180Y-126576498D01*
X164042482Y-126540188D01*
X163918000Y-126527928D01*
X162218000Y-126527928D01*
X162093518Y-126540188D01*
X161973820Y-126576498D01*
X161863506Y-126635463D01*
X161766815Y-126714815D01*
X161687463Y-126811506D01*
X161628498Y-126921820D01*
X161592188Y-127041518D01*
X161579928Y-127166000D01*
X153891908Y-127166000D01*
X153848637Y-127101241D01*
X153648759Y-126901363D01*
X153413727Y-126744320D01*
X153152574Y-126636147D01*
X152875335Y-126581000D01*
X152592665Y-126581000D01*
X152315426Y-126636147D01*
X152054273Y-126744320D01*
X151819241Y-126901363D01*
X151619363Y-127101241D01*
X151462320Y-127336273D01*
X151354147Y-127597426D01*
X151299000Y-127874665D01*
X141311790Y-127874665D01*
X141425904Y-127666961D01*
X141385246Y-127532913D01*
X141265037Y-127278580D01*
X141097519Y-127052586D01*
X140889131Y-126863615D01*
X140647881Y-126718930D01*
X140383040Y-126624091D01*
X140161000Y-126745376D01*
X139907000Y-126745376D01*
X139684960Y-126624091D01*
X139420119Y-126718930D01*
X139178869Y-126863615D01*
X138970481Y-127052586D01*
X138802963Y-127278580D01*
X138682754Y-127532913D01*
X138642096Y-127666961D01*
X134697842Y-127666961D01*
X135612846Y-126751958D01*
X135694509Y-126760001D01*
X136235493Y-126760001D01*
X136446310Y-126739237D01*
X136716809Y-126657183D01*
X136966102Y-126523933D01*
X137184609Y-126344609D01*
X137363933Y-126126102D01*
X137497183Y-125876809D01*
X137579237Y-125606310D01*
X137606944Y-125325001D01*
X137579237Y-125043692D01*
X137497183Y-124773193D01*
X137363933Y-124523900D01*
X137184609Y-124305393D01*
X136966102Y-124126069D01*
X136836656Y-124056879D01*
X136854228Y-124049431D01*
X137087663Y-123890674D01*
X137285640Y-123689426D01*
X137440552Y-123453422D01*
X137508688Y-123285039D01*
X138562096Y-123285039D01*
X138602754Y-123419087D01*
X138722963Y-123673420D01*
X138890481Y-123899414D01*
X139098869Y-124088385D01*
X139340119Y-124233070D01*
X139604960Y-124327909D01*
X139827000Y-124206624D01*
X139827000Y-123063000D01*
X140081000Y-123063000D01*
X140081000Y-124206624D01*
X140303040Y-124327909D01*
X140567881Y-124233070D01*
X140809131Y-124088385D01*
X141017519Y-123899414D01*
X141185037Y-123673420D01*
X141305246Y-123419087D01*
X141345904Y-123285039D01*
X141223915Y-123063000D01*
X140081000Y-123063000D01*
X139827000Y-123063000D01*
X138684085Y-123063000D01*
X138562096Y-123285039D01*
X137508688Y-123285039D01*
X137546445Y-123191731D01*
X137556905Y-123134040D01*
X137434916Y-122912001D01*
X136092001Y-122912001D01*
X136092001Y-122932001D01*
X135838001Y-122932001D01*
X135838001Y-122912001D01*
X134495086Y-122912001D01*
X134373097Y-123134040D01*
X134383557Y-123191731D01*
X134489450Y-123453422D01*
X134644362Y-123689426D01*
X134842339Y-123890674D01*
X135075774Y-124049431D01*
X135093346Y-124056879D01*
X134963900Y-124126069D01*
X134745393Y-124305393D01*
X134566069Y-124523900D01*
X134432819Y-124773193D01*
X134350765Y-125043692D01*
X134323058Y-125325001D01*
X134350765Y-125606310D01*
X134410842Y-125804359D01*
X131689201Y-128526000D01*
X112836802Y-128526000D01*
X110488000Y-126177199D01*
X110488000Y-103415322D01*
X110491676Y-103377999D01*
X110488000Y-103340676D01*
X110488000Y-103340667D01*
X110477003Y-103229014D01*
X110433546Y-103085753D01*
X110362974Y-102953724D01*
X110268001Y-102837999D01*
X110239004Y-102814202D01*
X108937804Y-101513003D01*
X108914001Y-101483999D01*
X108798276Y-101389026D01*
X108666247Y-101318454D01*
X108522986Y-101274997D01*
X108411333Y-101264000D01*
X108411322Y-101264000D01*
X108374000Y-101260324D01*
X108336678Y-101264000D01*
X107914072Y-101264000D01*
X107914072Y-101174000D01*
X107901812Y-101049518D01*
X107865502Y-100929820D01*
X107806537Y-100819506D01*
X107727185Y-100722815D01*
X107630494Y-100643463D01*
X107520180Y-100584498D01*
X107400482Y-100548188D01*
X107276000Y-100535928D01*
X105576000Y-100535928D01*
X105451518Y-100548188D01*
X105331820Y-100584498D01*
X105221506Y-100643463D01*
X105124815Y-100722815D01*
X105045463Y-100819506D01*
X104986498Y-100929820D01*
X104950188Y-101049518D01*
X104937928Y-101174000D01*
X100253000Y-101174000D01*
X100253000Y-96520000D01*
X110617000Y-96520000D01*
X110617000Y-105918000D01*
X110619440Y-105942776D01*
X110626667Y-105966601D01*
X110638403Y-105988557D01*
X110654197Y-106007803D01*
X110673443Y-106023597D01*
X110695399Y-106035333D01*
X110719224Y-106042560D01*
X110744000Y-106045000D01*
X111713299Y-106045000D01*
X111653816Y-106093816D01*
X111574464Y-106190507D01*
X111515499Y-106300821D01*
X111479189Y-106420519D01*
X111466929Y-106545001D01*
X111466929Y-108545001D01*
X111479189Y-108669483D01*
X111515499Y-108789181D01*
X111574464Y-108899495D01*
X111653816Y-108996186D01*
X111750507Y-109075538D01*
X111838477Y-109122560D01*
X111706069Y-109283900D01*
X111572819Y-109533193D01*
X111490765Y-109803692D01*
X111463058Y-110085001D01*
X111490765Y-110366310D01*
X111572819Y-110636809D01*
X111706069Y-110886102D01*
X111885393Y-111104609D01*
X112103900Y-111283933D01*
X112236859Y-111355001D01*
X112103900Y-111426069D01*
X111885393Y-111605393D01*
X111706069Y-111823900D01*
X111572819Y-112073193D01*
X111490765Y-112343692D01*
X111463058Y-112625001D01*
X111490765Y-112906310D01*
X111572819Y-113176809D01*
X111706069Y-113426102D01*
X111885393Y-113644609D01*
X112103900Y-113823933D01*
X112236859Y-113895001D01*
X112103900Y-113966069D01*
X111885393Y-114145393D01*
X111706069Y-114363900D01*
X111572819Y-114613193D01*
X111490765Y-114883692D01*
X111463058Y-115165001D01*
X111490765Y-115446310D01*
X111572819Y-115716809D01*
X111706069Y-115966102D01*
X111885393Y-116184609D01*
X112103900Y-116363933D01*
X112236859Y-116435001D01*
X112103900Y-116506069D01*
X111885393Y-116685393D01*
X111706069Y-116903900D01*
X111572819Y-117153193D01*
X111490765Y-117423692D01*
X111463058Y-117705001D01*
X111490765Y-117986310D01*
X111572819Y-118256809D01*
X111706069Y-118506102D01*
X111885393Y-118724609D01*
X112103900Y-118903933D01*
X112236859Y-118975001D01*
X112103900Y-119046069D01*
X111885393Y-119225393D01*
X111706069Y-119443900D01*
X111572819Y-119693193D01*
X111490765Y-119963692D01*
X111463058Y-120245001D01*
X111490765Y-120526310D01*
X111572819Y-120796809D01*
X111706069Y-121046102D01*
X111885393Y-121264609D01*
X112103900Y-121443933D01*
X112236859Y-121515001D01*
X112103900Y-121586069D01*
X111885393Y-121765393D01*
X111706069Y-121983900D01*
X111572819Y-122233193D01*
X111490765Y-122503692D01*
X111463058Y-122785001D01*
X111490765Y-123066310D01*
X111572819Y-123336809D01*
X111706069Y-123586102D01*
X111885393Y-123804609D01*
X112103900Y-123983933D01*
X112236859Y-124055001D01*
X112103900Y-124126069D01*
X111885393Y-124305393D01*
X111706069Y-124523900D01*
X111572819Y-124773193D01*
X111490765Y-125043692D01*
X111463058Y-125325001D01*
X111490765Y-125606310D01*
X111572819Y-125876809D01*
X111706069Y-126126102D01*
X111885393Y-126344609D01*
X112103900Y-126523933D01*
X112353193Y-126657183D01*
X112623692Y-126739237D01*
X112834509Y-126760001D01*
X113375493Y-126760001D01*
X113586310Y-126739237D01*
X113856809Y-126657183D01*
X114106102Y-126523933D01*
X114324609Y-126344609D01*
X114503933Y-126126102D01*
X114637183Y-125876809D01*
X114719237Y-125606310D01*
X114746944Y-125325001D01*
X114719237Y-125043692D01*
X114637183Y-124773193D01*
X114503933Y-124523900D01*
X114324609Y-124305393D01*
X114106102Y-124126069D01*
X113973143Y-124055001D01*
X114106102Y-123983933D01*
X114324609Y-123804609D01*
X114503933Y-123586102D01*
X114637183Y-123336809D01*
X114719237Y-123066310D01*
X114746944Y-122785001D01*
X114719237Y-122503692D01*
X114637183Y-122233193D01*
X114503933Y-121983900D01*
X114324609Y-121765393D01*
X114106102Y-121586069D01*
X113973143Y-121515001D01*
X114106102Y-121443933D01*
X114324609Y-121264609D01*
X114503933Y-121046102D01*
X114637183Y-120796809D01*
X114719237Y-120526310D01*
X114746944Y-120245001D01*
X114719237Y-119963692D01*
X114637183Y-119693193D01*
X114503933Y-119443900D01*
X114324609Y-119225393D01*
X114106102Y-119046069D01*
X113973143Y-118975001D01*
X114106102Y-118903933D01*
X114324609Y-118724609D01*
X114503933Y-118506102D01*
X114637183Y-118256809D01*
X114719237Y-117986310D01*
X114746944Y-117705001D01*
X114719237Y-117423692D01*
X114637183Y-117153193D01*
X114503933Y-116903900D01*
X114324609Y-116685393D01*
X114106102Y-116506069D01*
X113973143Y-116435001D01*
X114106102Y-116363933D01*
X114324609Y-116184609D01*
X114503933Y-115966102D01*
X114637183Y-115716809D01*
X114719237Y-115446310D01*
X114746944Y-115165001D01*
X114719237Y-114883692D01*
X114637183Y-114613193D01*
X114503933Y-114363900D01*
X114324609Y-114145393D01*
X114106102Y-113966069D01*
X113973143Y-113895001D01*
X114106102Y-113823933D01*
X114324609Y-113644609D01*
X114503933Y-113426102D01*
X114637183Y-113176809D01*
X114719237Y-112906310D01*
X114746944Y-112625001D01*
X114719237Y-112343692D01*
X114637183Y-112073193D01*
X114503933Y-111823900D01*
X114324609Y-111605393D01*
X114106102Y-111426069D01*
X113973143Y-111355001D01*
X114106102Y-111283933D01*
X114324609Y-111104609D01*
X114503933Y-110886102D01*
X114637183Y-110636809D01*
X114719237Y-110366310D01*
X114746944Y-110085001D01*
X114719237Y-109803692D01*
X114637183Y-109533193D01*
X114503933Y-109283900D01*
X114371525Y-109122560D01*
X114459495Y-109075538D01*
X114556186Y-108996186D01*
X114635538Y-108899495D01*
X114694503Y-108789181D01*
X114730813Y-108669483D01*
X114743073Y-108545001D01*
X114743073Y-107545001D01*
X134323058Y-107545001D01*
X134350765Y-107826310D01*
X134432819Y-108096809D01*
X134566069Y-108346102D01*
X134745393Y-108564609D01*
X134963900Y-108743933D01*
X135096859Y-108815001D01*
X134963900Y-108886069D01*
X134745393Y-109065393D01*
X134566069Y-109283900D01*
X134432819Y-109533193D01*
X134350765Y-109803692D01*
X134323058Y-110085001D01*
X134350765Y-110366310D01*
X134432819Y-110636809D01*
X134566069Y-110886102D01*
X134745393Y-111104609D01*
X134963900Y-111283933D01*
X135096859Y-111355001D01*
X134963900Y-111426069D01*
X134745393Y-111605393D01*
X134566069Y-111823900D01*
X134432819Y-112073193D01*
X134350765Y-112343692D01*
X134323058Y-112625001D01*
X134350765Y-112906310D01*
X134432819Y-113176809D01*
X134566069Y-113426102D01*
X134745393Y-113644609D01*
X134963900Y-113823933D01*
X135096859Y-113895001D01*
X134963900Y-113966069D01*
X134745393Y-114145393D01*
X134566069Y-114363900D01*
X134432819Y-114613193D01*
X134350765Y-114883692D01*
X134323058Y-115165001D01*
X134350765Y-115446310D01*
X134432819Y-115716809D01*
X134566069Y-115966102D01*
X134745393Y-116184609D01*
X134963900Y-116363933D01*
X135096859Y-116435001D01*
X134963900Y-116506069D01*
X134745393Y-116685393D01*
X134566069Y-116903900D01*
X134432819Y-117153193D01*
X134350765Y-117423692D01*
X134323058Y-117705001D01*
X134350765Y-117986310D01*
X134432819Y-118256809D01*
X134566069Y-118506102D01*
X134745393Y-118724609D01*
X134963900Y-118903933D01*
X135096859Y-118975001D01*
X134963900Y-119046069D01*
X134745393Y-119225393D01*
X134566069Y-119443900D01*
X134432819Y-119693193D01*
X134350765Y-119963692D01*
X134323058Y-120245001D01*
X134350765Y-120526310D01*
X134432819Y-120796809D01*
X134566069Y-121046102D01*
X134745393Y-121264609D01*
X134963900Y-121443933D01*
X135093346Y-121513123D01*
X135075774Y-121520571D01*
X134842339Y-121679328D01*
X134644362Y-121880576D01*
X134489450Y-122116580D01*
X134383557Y-122378271D01*
X134373097Y-122435962D01*
X134495086Y-122658001D01*
X135838001Y-122658001D01*
X135838001Y-122638001D01*
X136092001Y-122638001D01*
X136092001Y-122658001D01*
X137434916Y-122658001D01*
X137473945Y-122586961D01*
X138562096Y-122586961D01*
X138684085Y-122809000D01*
X139827000Y-122809000D01*
X139827000Y-121665376D01*
X140081000Y-121665376D01*
X140081000Y-122809000D01*
X141223915Y-122809000D01*
X141231790Y-122794665D01*
X151219000Y-122794665D01*
X151219000Y-123077335D01*
X151274147Y-123354574D01*
X151382320Y-123615727D01*
X151539363Y-123850759D01*
X151739241Y-124050637D01*
X151974273Y-124207680D01*
X152235426Y-124315853D01*
X152512665Y-124371000D01*
X152795335Y-124371000D01*
X153072574Y-124315853D01*
X153333727Y-124207680D01*
X153568759Y-124050637D01*
X153768637Y-123850759D01*
X153925680Y-123615727D01*
X154033853Y-123354574D01*
X154089000Y-123077335D01*
X154089000Y-122794665D01*
X154033853Y-122517426D01*
X153925680Y-122256273D01*
X153768637Y-122021241D01*
X153568759Y-121821363D01*
X153333727Y-121664320D01*
X153072574Y-121556147D01*
X152795335Y-121501000D01*
X152512665Y-121501000D01*
X152235426Y-121556147D01*
X151974273Y-121664320D01*
X151739241Y-121821363D01*
X151539363Y-122021241D01*
X151382320Y-122256273D01*
X151274147Y-122517426D01*
X151219000Y-122794665D01*
X141231790Y-122794665D01*
X141345904Y-122586961D01*
X141305246Y-122452913D01*
X141185037Y-122198580D01*
X141017519Y-121972586D01*
X140809131Y-121783615D01*
X140567881Y-121638930D01*
X140303040Y-121544091D01*
X140081000Y-121665376D01*
X139827000Y-121665376D01*
X139604960Y-121544091D01*
X139340119Y-121638930D01*
X139098869Y-121783615D01*
X138890481Y-121972586D01*
X138722963Y-122198580D01*
X138602754Y-122452913D01*
X138562096Y-122586961D01*
X137473945Y-122586961D01*
X137556905Y-122435962D01*
X137546445Y-122378271D01*
X137440552Y-122116580D01*
X137285640Y-121880576D01*
X137087663Y-121679328D01*
X136854228Y-121520571D01*
X136836656Y-121513123D01*
X136966102Y-121443933D01*
X137184609Y-121264609D01*
X137363933Y-121046102D01*
X137497183Y-120796809D01*
X137579237Y-120526310D01*
X137606944Y-120245001D01*
X137579237Y-119963692D01*
X137497183Y-119693193D01*
X137363933Y-119443900D01*
X137184609Y-119225393D01*
X136966102Y-119046069D01*
X136833143Y-118975001D01*
X136966102Y-118903933D01*
X137184609Y-118724609D01*
X137363933Y-118506102D01*
X137497183Y-118256809D01*
X137512887Y-118205039D01*
X138562096Y-118205039D01*
X138602754Y-118339087D01*
X138722963Y-118593420D01*
X138890481Y-118819414D01*
X139098869Y-119008385D01*
X139340119Y-119153070D01*
X139604960Y-119247909D01*
X139827000Y-119126624D01*
X139827000Y-117983000D01*
X140081000Y-117983000D01*
X140081000Y-119126624D01*
X140303040Y-119247909D01*
X140567881Y-119153070D01*
X140809131Y-119008385D01*
X141017519Y-118819414D01*
X141185037Y-118593420D01*
X141305246Y-118339087D01*
X141345904Y-118205039D01*
X141223915Y-117983000D01*
X140081000Y-117983000D01*
X139827000Y-117983000D01*
X138684085Y-117983000D01*
X138562096Y-118205039D01*
X137512887Y-118205039D01*
X137579237Y-117986310D01*
X137606944Y-117705001D01*
X137587439Y-117506961D01*
X138562096Y-117506961D01*
X138684085Y-117729000D01*
X139827000Y-117729000D01*
X139827000Y-116585376D01*
X140081000Y-116585376D01*
X140081000Y-117729000D01*
X141223915Y-117729000D01*
X141231790Y-117714665D01*
X151219000Y-117714665D01*
X151219000Y-117997335D01*
X151274147Y-118274574D01*
X151382320Y-118535727D01*
X151539363Y-118770759D01*
X151739241Y-118970637D01*
X151974273Y-119127680D01*
X152235426Y-119235853D01*
X152512665Y-119291000D01*
X152795335Y-119291000D01*
X153072574Y-119235853D01*
X153333727Y-119127680D01*
X153568759Y-118970637D01*
X153768637Y-118770759D01*
X153925680Y-118535727D01*
X154033853Y-118274574D01*
X154039138Y-118248000D01*
X161479928Y-118248000D01*
X161479928Y-119948000D01*
X161492188Y-120072482D01*
X161528498Y-120192180D01*
X161587463Y-120302494D01*
X161666815Y-120399185D01*
X161763506Y-120478537D01*
X161873820Y-120537502D01*
X161946380Y-120559513D01*
X161814525Y-120691368D01*
X161652010Y-120934589D01*
X161540068Y-121204842D01*
X161483000Y-121491740D01*
X161483000Y-121784260D01*
X161540068Y-122071158D01*
X161652010Y-122341411D01*
X161814525Y-122584632D01*
X162021368Y-122791475D01*
X162264589Y-122953990D01*
X162534842Y-123065932D01*
X162821740Y-123123000D01*
X163114260Y-123123000D01*
X163401158Y-123065932D01*
X163671411Y-122953990D01*
X163914632Y-122791475D01*
X164121475Y-122584632D01*
X164283990Y-122341411D01*
X164395932Y-122071158D01*
X164453000Y-121784260D01*
X164453000Y-121491740D01*
X164395932Y-121204842D01*
X164283990Y-120934589D01*
X164121475Y-120691368D01*
X163989620Y-120559513D01*
X164062180Y-120537502D01*
X164172494Y-120478537D01*
X164269185Y-120399185D01*
X164348537Y-120302494D01*
X164407502Y-120192180D01*
X164443812Y-120072482D01*
X164456072Y-119948000D01*
X164456072Y-118248000D01*
X164443812Y-118123518D01*
X164407502Y-118003820D01*
X164348537Y-117893506D01*
X164269185Y-117796815D01*
X164172494Y-117717463D01*
X164062180Y-117658498D01*
X163942482Y-117622188D01*
X163818000Y-117609928D01*
X162118000Y-117609928D01*
X161993518Y-117622188D01*
X161873820Y-117658498D01*
X161763506Y-117717463D01*
X161666815Y-117796815D01*
X161587463Y-117893506D01*
X161528498Y-118003820D01*
X161492188Y-118123518D01*
X161479928Y-118248000D01*
X154039138Y-118248000D01*
X154089000Y-117997335D01*
X154089000Y-117714665D01*
X154033853Y-117437426D01*
X153925680Y-117176273D01*
X153768637Y-116941241D01*
X153568759Y-116741363D01*
X153333727Y-116584320D01*
X153072574Y-116476147D01*
X152795335Y-116421000D01*
X152512665Y-116421000D01*
X152235426Y-116476147D01*
X151974273Y-116584320D01*
X151739241Y-116741363D01*
X151539363Y-116941241D01*
X151382320Y-117176273D01*
X151274147Y-117437426D01*
X151219000Y-117714665D01*
X141231790Y-117714665D01*
X141345904Y-117506961D01*
X141305246Y-117372913D01*
X141185037Y-117118580D01*
X141017519Y-116892586D01*
X140809131Y-116703615D01*
X140567881Y-116558930D01*
X140303040Y-116464091D01*
X140081000Y-116585376D01*
X139827000Y-116585376D01*
X139604960Y-116464091D01*
X139340119Y-116558930D01*
X139098869Y-116703615D01*
X138890481Y-116892586D01*
X138722963Y-117118580D01*
X138602754Y-117372913D01*
X138562096Y-117506961D01*
X137587439Y-117506961D01*
X137579237Y-117423692D01*
X137497183Y-117153193D01*
X137363933Y-116903900D01*
X137184609Y-116685393D01*
X136966102Y-116506069D01*
X136833143Y-116435001D01*
X136966102Y-116363933D01*
X137184609Y-116184609D01*
X137363933Y-115966102D01*
X137497183Y-115716809D01*
X137579237Y-115446310D01*
X137606944Y-115165001D01*
X137579237Y-114883692D01*
X137497183Y-114613193D01*
X137363933Y-114363900D01*
X137184609Y-114145393D01*
X136966102Y-113966069D01*
X136833143Y-113895001D01*
X136966102Y-113823933D01*
X137184609Y-113644609D01*
X137363933Y-113426102D01*
X137497183Y-113176809D01*
X137579237Y-112906310D01*
X137605992Y-112634665D01*
X138519000Y-112634665D01*
X138519000Y-112917335D01*
X138574147Y-113194574D01*
X138682320Y-113455727D01*
X138839363Y-113690759D01*
X139039241Y-113890637D01*
X139274273Y-114047680D01*
X139535426Y-114155853D01*
X139812665Y-114211000D01*
X140095335Y-114211000D01*
X140372574Y-114155853D01*
X140633727Y-114047680D01*
X140868759Y-113890637D01*
X141068637Y-113690759D01*
X141225680Y-113455727D01*
X141333853Y-113194574D01*
X141389000Y-112917335D01*
X141389000Y-112634665D01*
X151219000Y-112634665D01*
X151219000Y-112917335D01*
X151274147Y-113194574D01*
X151382320Y-113455727D01*
X151539363Y-113690759D01*
X151739241Y-113890637D01*
X151974273Y-114047680D01*
X152235426Y-114155853D01*
X152512665Y-114211000D01*
X152795335Y-114211000D01*
X153072574Y-114155853D01*
X153333727Y-114047680D01*
X153568759Y-113890637D01*
X153768637Y-113690759D01*
X153925680Y-113455727D01*
X154033853Y-113194574D01*
X154089000Y-112917335D01*
X154089000Y-112634665D01*
X154033853Y-112357426D01*
X153925680Y-112096273D01*
X153768637Y-111861241D01*
X153568759Y-111661363D01*
X153333727Y-111504320D01*
X153072574Y-111396147D01*
X152795335Y-111341000D01*
X152512665Y-111341000D01*
X152235426Y-111396147D01*
X151974273Y-111504320D01*
X151739241Y-111661363D01*
X151539363Y-111861241D01*
X151382320Y-112096273D01*
X151274147Y-112357426D01*
X151219000Y-112634665D01*
X141389000Y-112634665D01*
X141333853Y-112357426D01*
X141225680Y-112096273D01*
X141068637Y-111861241D01*
X140868759Y-111661363D01*
X140633727Y-111504320D01*
X140372574Y-111396147D01*
X140095335Y-111341000D01*
X139812665Y-111341000D01*
X139535426Y-111396147D01*
X139274273Y-111504320D01*
X139039241Y-111661363D01*
X138839363Y-111861241D01*
X138682320Y-112096273D01*
X138574147Y-112357426D01*
X138519000Y-112634665D01*
X137605992Y-112634665D01*
X137606944Y-112625001D01*
X137579237Y-112343692D01*
X137497183Y-112073193D01*
X137363933Y-111823900D01*
X137184609Y-111605393D01*
X136966102Y-111426069D01*
X136833143Y-111355001D01*
X136966102Y-111283933D01*
X137184609Y-111104609D01*
X137363933Y-110886102D01*
X137497183Y-110636809D01*
X137579237Y-110366310D01*
X137595814Y-110198000D01*
X156679928Y-110198000D01*
X156679928Y-111998000D01*
X156692188Y-112122482D01*
X156728498Y-112242180D01*
X156787463Y-112352494D01*
X156866815Y-112449185D01*
X156963506Y-112528537D01*
X157073820Y-112587502D01*
X157193518Y-112623812D01*
X157318000Y-112636072D01*
X159118000Y-112636072D01*
X159242482Y-112623812D01*
X159362180Y-112587502D01*
X159472494Y-112528537D01*
X159569185Y-112449185D01*
X159648537Y-112352494D01*
X159707502Y-112242180D01*
X159743812Y-112122482D01*
X159756072Y-111998000D01*
X159756072Y-110198000D01*
X159743812Y-110073518D01*
X159707502Y-109953820D01*
X159648537Y-109843506D01*
X159570158Y-109748000D01*
X161479928Y-109748000D01*
X161479928Y-111448000D01*
X161492188Y-111572482D01*
X161528498Y-111692180D01*
X161587463Y-111802494D01*
X161666815Y-111899185D01*
X161763506Y-111978537D01*
X161873820Y-112037502D01*
X161946380Y-112059513D01*
X161814525Y-112191368D01*
X161652010Y-112434589D01*
X161540068Y-112704842D01*
X161483000Y-112991740D01*
X161483000Y-113284260D01*
X161540068Y-113571158D01*
X161652010Y-113841411D01*
X161814525Y-114084632D01*
X162021368Y-114291475D01*
X162264589Y-114453990D01*
X162534842Y-114565932D01*
X162821740Y-114623000D01*
X163114260Y-114623000D01*
X163401158Y-114565932D01*
X163671411Y-114453990D01*
X163914632Y-114291475D01*
X164121475Y-114084632D01*
X164283990Y-113841411D01*
X164395932Y-113571158D01*
X164453000Y-113284260D01*
X164453000Y-112991740D01*
X164395932Y-112704842D01*
X164283990Y-112434589D01*
X164121475Y-112191368D01*
X163989620Y-112059513D01*
X164062180Y-112037502D01*
X164172494Y-111978537D01*
X164269185Y-111899185D01*
X164348537Y-111802494D01*
X164407502Y-111692180D01*
X164443812Y-111572482D01*
X164456072Y-111448000D01*
X164456072Y-109748000D01*
X164443812Y-109623518D01*
X164407502Y-109503820D01*
X164348537Y-109393506D01*
X164269185Y-109296815D01*
X164172494Y-109217463D01*
X164062180Y-109158498D01*
X163942482Y-109122188D01*
X163818000Y-109109928D01*
X162118000Y-109109928D01*
X161993518Y-109122188D01*
X161873820Y-109158498D01*
X161763506Y-109217463D01*
X161666815Y-109296815D01*
X161587463Y-109393506D01*
X161528498Y-109503820D01*
X161492188Y-109623518D01*
X161479928Y-109748000D01*
X159570158Y-109748000D01*
X159569185Y-109746815D01*
X159472494Y-109667463D01*
X159362180Y-109608498D01*
X159242482Y-109572188D01*
X159118000Y-109559928D01*
X157318000Y-109559928D01*
X157193518Y-109572188D01*
X157073820Y-109608498D01*
X156963506Y-109667463D01*
X156866815Y-109746815D01*
X156787463Y-109843506D01*
X156728498Y-109953820D01*
X156692188Y-110073518D01*
X156679928Y-110198000D01*
X137595814Y-110198000D01*
X137606944Y-110085001D01*
X137579237Y-109803692D01*
X137497183Y-109533193D01*
X137363933Y-109283900D01*
X137184609Y-109065393D01*
X136966102Y-108886069D01*
X136833143Y-108815001D01*
X136966102Y-108743933D01*
X137184609Y-108564609D01*
X137363933Y-108346102D01*
X137497183Y-108096809D01*
X137579237Y-107826310D01*
X137606944Y-107545001D01*
X137579237Y-107263692D01*
X137552637Y-107176000D01*
X150220928Y-107176000D01*
X150233188Y-107300482D01*
X150269498Y-107420180D01*
X150328463Y-107530494D01*
X150407815Y-107627185D01*
X150504506Y-107706537D01*
X150614820Y-107765502D01*
X150734518Y-107801812D01*
X150859000Y-107814072D01*
X151098250Y-107811000D01*
X151257000Y-107652250D01*
X151257000Y-106553000D01*
X150382750Y-106553000D01*
X150224000Y-106711750D01*
X150220928Y-107176000D01*
X137552637Y-107176000D01*
X137497183Y-106993193D01*
X137363933Y-106743900D01*
X137184609Y-106525393D01*
X136966102Y-106346069D01*
X136716809Y-106212819D01*
X136446310Y-106130765D01*
X136235493Y-106110001D01*
X135694509Y-106110001D01*
X135483692Y-106130765D01*
X135213193Y-106212819D01*
X134963900Y-106346069D01*
X134745393Y-106525393D01*
X134566069Y-106743900D01*
X134432819Y-106993193D01*
X134350765Y-107263692D01*
X134323058Y-107545001D01*
X114743073Y-107545001D01*
X114743073Y-106545001D01*
X114730813Y-106420519D01*
X114694503Y-106300821D01*
X114635538Y-106190507D01*
X114556186Y-106093816D01*
X114496703Y-106045000D01*
X137922000Y-106045000D01*
X137946776Y-106042560D01*
X137970601Y-106035333D01*
X137992557Y-106023597D01*
X138011803Y-106007803D01*
X138027597Y-105988557D01*
X138039333Y-105966601D01*
X138046560Y-105942776D01*
X138049000Y-105918000D01*
X138049000Y-105676000D01*
X150220928Y-105676000D01*
X150224000Y-106140250D01*
X150382750Y-106299000D01*
X151257000Y-106299000D01*
X151257000Y-106144022D01*
X151494000Y-106144022D01*
X151494000Y-106707979D01*
X151510785Y-106878400D01*
X151511000Y-106879109D01*
X151511000Y-107652250D01*
X151669750Y-107811000D01*
X151909000Y-107814072D01*
X152033482Y-107801812D01*
X152153180Y-107765502D01*
X152217902Y-107730907D01*
X152426601Y-107794215D01*
X152654000Y-107816612D01*
X152881400Y-107794215D01*
X153100060Y-107727885D01*
X153289001Y-107626894D01*
X153477941Y-107727885D01*
X153696601Y-107794215D01*
X153924000Y-107816612D01*
X154151400Y-107794215D01*
X154370060Y-107727885D01*
X154571579Y-107620171D01*
X154748212Y-107475212D01*
X154893171Y-107298579D01*
X155000885Y-107097059D01*
X155067215Y-106878399D01*
X155084000Y-106707978D01*
X155084000Y-106144021D01*
X155067215Y-105973600D01*
X155000885Y-105754940D01*
X154893171Y-105553421D01*
X154748212Y-105376788D01*
X154571578Y-105231829D01*
X154370059Y-105124115D01*
X154151399Y-105057785D01*
X153924000Y-105035388D01*
X153696600Y-105057785D01*
X153477940Y-105124115D01*
X153289000Y-105225106D01*
X153100059Y-105124115D01*
X152881399Y-105057785D01*
X152654000Y-105035388D01*
X152426600Y-105057785D01*
X152217902Y-105121093D01*
X152153180Y-105086498D01*
X152033482Y-105050188D01*
X151909000Y-105037928D01*
X151669750Y-105041000D01*
X151511000Y-105199750D01*
X151511000Y-105972892D01*
X151510785Y-105973601D01*
X151494000Y-106144022D01*
X151257000Y-106144022D01*
X151257000Y-105199750D01*
X151098250Y-105041000D01*
X150859000Y-105037928D01*
X150734518Y-105050188D01*
X150614820Y-105086498D01*
X150504506Y-105145463D01*
X150407815Y-105224815D01*
X150328463Y-105321506D01*
X150269498Y-105431820D01*
X150233188Y-105551518D01*
X150220928Y-105676000D01*
X138049000Y-105676000D01*
X138049000Y-98246816D01*
X156683000Y-98246816D01*
X156683000Y-98549184D01*
X156741989Y-98845743D01*
X156857701Y-99125095D01*
X157025688Y-99376505D01*
X157239495Y-99590312D01*
X157490905Y-99758299D01*
X157770257Y-99874011D01*
X158066816Y-99933000D01*
X158369184Y-99933000D01*
X158665743Y-99874011D01*
X158945095Y-99758299D01*
X159196505Y-99590312D01*
X159410312Y-99376505D01*
X159578299Y-99125095D01*
X159694011Y-98845743D01*
X159753000Y-98549184D01*
X159753000Y-98248000D01*
X161479928Y-98248000D01*
X161479928Y-99948000D01*
X161492188Y-100072482D01*
X161528498Y-100192180D01*
X161587463Y-100302494D01*
X161666815Y-100399185D01*
X161763506Y-100478537D01*
X161873820Y-100537502D01*
X161946380Y-100559513D01*
X161814525Y-100691368D01*
X161652010Y-100934589D01*
X161540068Y-101204842D01*
X161483000Y-101491740D01*
X161483000Y-101784260D01*
X161540068Y-102071158D01*
X161652010Y-102341411D01*
X161814525Y-102584632D01*
X162021368Y-102791475D01*
X162264589Y-102953990D01*
X162534842Y-103065932D01*
X162821740Y-103123000D01*
X163114260Y-103123000D01*
X163401158Y-103065932D01*
X163671411Y-102953990D01*
X163914632Y-102791475D01*
X164121475Y-102584632D01*
X164283990Y-102341411D01*
X164395932Y-102071158D01*
X164453000Y-101784260D01*
X164453000Y-101491740D01*
X164395932Y-101204842D01*
X164283990Y-100934589D01*
X164121475Y-100691368D01*
X163989620Y-100559513D01*
X164062180Y-100537502D01*
X164172494Y-100478537D01*
X164269185Y-100399185D01*
X164348537Y-100302494D01*
X164407502Y-100192180D01*
X164443812Y-100072482D01*
X164456072Y-99948000D01*
X164456072Y-98248000D01*
X164443812Y-98123518D01*
X164407502Y-98003820D01*
X164348537Y-97893506D01*
X164269185Y-97796815D01*
X164172494Y-97717463D01*
X164062180Y-97658498D01*
X163942482Y-97622188D01*
X163818000Y-97609928D01*
X162118000Y-97609928D01*
X161993518Y-97622188D01*
X161873820Y-97658498D01*
X161763506Y-97717463D01*
X161666815Y-97796815D01*
X161587463Y-97893506D01*
X161528498Y-98003820D01*
X161492188Y-98123518D01*
X161479928Y-98248000D01*
X159753000Y-98248000D01*
X159753000Y-98246816D01*
X159694011Y-97950257D01*
X159578299Y-97670905D01*
X159410312Y-97419495D01*
X159196505Y-97205688D01*
X158945095Y-97037701D01*
X158665743Y-96921989D01*
X158369184Y-96863000D01*
X158066816Y-96863000D01*
X157770257Y-96921989D01*
X157490905Y-97037701D01*
X157239495Y-97205688D01*
X157025688Y-97419495D01*
X156857701Y-97670905D01*
X156741989Y-97950257D01*
X156683000Y-98246816D01*
X138049000Y-98246816D01*
X138049000Y-96520000D01*
X138046560Y-96495224D01*
X138039333Y-96471399D01*
X138027597Y-96449443D01*
X138011803Y-96430197D01*
X137992557Y-96414403D01*
X137970601Y-96402667D01*
X137946776Y-96395440D01*
X137922000Y-96393000D01*
X110744000Y-96393000D01*
X110719224Y-96395440D01*
X110695399Y-96402667D01*
X110673443Y-96414403D01*
X110654197Y-96430197D01*
X110638403Y-96449443D01*
X110626667Y-96471399D01*
X110619440Y-96495224D01*
X110617000Y-96520000D01*
X100253000Y-96520000D01*
X100253000Y-94590890D01*
X104984524Y-94590890D01*
X105029175Y-94738099D01*
X105154359Y-95000920D01*
X105328412Y-95234269D01*
X105544645Y-95429178D01*
X105794748Y-95578157D01*
X106069109Y-95675481D01*
X106299000Y-95554814D01*
X106299000Y-94361000D01*
X106553000Y-94361000D01*
X106553000Y-95554814D01*
X106782891Y-95675481D01*
X107057252Y-95578157D01*
X107307355Y-95429178D01*
X107523588Y-95234269D01*
X107697641Y-95000920D01*
X107822825Y-94738099D01*
X107867476Y-94590890D01*
X118954524Y-94590890D01*
X118999175Y-94738099D01*
X119124359Y-95000920D01*
X119298412Y-95234269D01*
X119514645Y-95429178D01*
X119764748Y-95578157D01*
X120039109Y-95675481D01*
X120269000Y-95554814D01*
X120269000Y-94361000D01*
X120523000Y-94361000D01*
X120523000Y-95554814D01*
X120752891Y-95675481D01*
X121027252Y-95578157D01*
X121277355Y-95429178D01*
X121493588Y-95234269D01*
X121667641Y-95000920D01*
X121792825Y-94738099D01*
X121837476Y-94590890D01*
X121716155Y-94361000D01*
X120523000Y-94361000D01*
X120269000Y-94361000D01*
X119075845Y-94361000D01*
X118954524Y-94590890D01*
X107867476Y-94590890D01*
X107746155Y-94361000D01*
X106553000Y-94361000D01*
X106299000Y-94361000D01*
X105105845Y-94361000D01*
X104984524Y-94590890D01*
X100253000Y-94590890D01*
X100253000Y-90844000D01*
X104937928Y-90844000D01*
X104937928Y-92544000D01*
X104950188Y-92668482D01*
X104986498Y-92788180D01*
X105045463Y-92898494D01*
X105124815Y-92995185D01*
X105221506Y-93074537D01*
X105331820Y-93133502D01*
X105412466Y-93157966D01*
X105328412Y-93233731D01*
X105154359Y-93467080D01*
X105029175Y-93729901D01*
X104984524Y-93877110D01*
X105105845Y-94107000D01*
X106299000Y-94107000D01*
X106299000Y-94087000D01*
X106553000Y-94087000D01*
X106553000Y-94107000D01*
X107746155Y-94107000D01*
X107867476Y-93877110D01*
X107822825Y-93729901D01*
X107697641Y-93467080D01*
X107523588Y-93233731D01*
X107439534Y-93157966D01*
X107520180Y-93133502D01*
X107630494Y-93074537D01*
X107727185Y-92995185D01*
X107806537Y-92898494D01*
X107865502Y-92788180D01*
X107901812Y-92668482D01*
X107914072Y-92544000D01*
X107914072Y-90844000D01*
X118907928Y-90844000D01*
X118907928Y-92544000D01*
X118920188Y-92668482D01*
X118956498Y-92788180D01*
X119015463Y-92898494D01*
X119094815Y-92995185D01*
X119191506Y-93074537D01*
X119301820Y-93133502D01*
X119382466Y-93157966D01*
X119298412Y-93233731D01*
X119124359Y-93467080D01*
X118999175Y-93729901D01*
X118954524Y-93877110D01*
X119075845Y-94107000D01*
X120269000Y-94107000D01*
X120269000Y-94087000D01*
X120523000Y-94087000D01*
X120523000Y-94107000D01*
X121716155Y-94107000D01*
X121837476Y-93877110D01*
X121792825Y-93729901D01*
X121667641Y-93467080D01*
X121493588Y-93233731D01*
X121409534Y-93157966D01*
X121490180Y-93133502D01*
X121600494Y-93074537D01*
X121697185Y-92995185D01*
X121776537Y-92898494D01*
X121835502Y-92788180D01*
X121871812Y-92668482D01*
X121884072Y-92544000D01*
X121884072Y-90844000D01*
X121871812Y-90719518D01*
X121835502Y-90599820D01*
X121776537Y-90489506D01*
X121697185Y-90392815D01*
X121600494Y-90313463D01*
X121490180Y-90254498D01*
X121370482Y-90218188D01*
X121246000Y-90205928D01*
X119546000Y-90205928D01*
X119421518Y-90218188D01*
X119301820Y-90254498D01*
X119191506Y-90313463D01*
X119094815Y-90392815D01*
X119015463Y-90489506D01*
X118956498Y-90599820D01*
X118920188Y-90719518D01*
X118907928Y-90844000D01*
X107914072Y-90844000D01*
X107901812Y-90719518D01*
X107865502Y-90599820D01*
X107806537Y-90489506D01*
X107727185Y-90392815D01*
X107630494Y-90313463D01*
X107520180Y-90254498D01*
X107400482Y-90218188D01*
X107276000Y-90205928D01*
X105576000Y-90205928D01*
X105451518Y-90218188D01*
X105331820Y-90254498D01*
X105221506Y-90313463D01*
X105124815Y-90392815D01*
X105045463Y-90489506D01*
X104986498Y-90599820D01*
X104950188Y-90719518D01*
X104937928Y-90844000D01*
X100253000Y-90844000D01*
X100253000Y-87807000D01*
X169495000Y-87807000D01*
X169495001Y-136729000D01*
%TD*%
M02*
