M48
; DRILL file {KiCad 5.1.6-c6e7f7d~87~ubuntu19.10.1} date Tue May 11 16:11:13 2021
; FORMAT={-:-/ absolute / inch / decimal}
; #@! TF.CreationDate,2021-05-11T16:11:13+01:00
; #@! TF.GenerationSoftware,Kicad,Pcbnew,5.1.6-c6e7f7d~87~ubuntu19.10.1
; #@! TF.FileFunction,Plated,1,2,PTH
FMAT,2
INCH
T1C0.0295
T2C0.0315
T3C0.0354
T4C0.0394
%
G90
G05
T1
X5.96Y-4.19
X6.01Y-4.19
X6.06Y-4.19
T2
X5.51Y-4.64
X6.01Y-4.64
X5.51Y-4.84
X6.01Y-4.84
X5.5131Y-5.04
X6.0131Y-5.04
X5.51Y-4.44
X6.01Y-4.44
T3
X6.2291Y-3.8739
X6.2291Y-4.3739
T4
X6.4161Y-4.3543
X6.4161Y-4.4543
X4.453Y-4.2341
X4.453Y-4.3341
X4.453Y-4.4341
X4.453Y-4.5341
X4.453Y-4.6341
X4.453Y-4.7341
X4.453Y-4.8341
X4.453Y-4.9341
X5.353Y-4.2341
X5.353Y-4.3341
X5.353Y-4.4341
X5.353Y-4.5341
X5.353Y-4.6341
X5.353Y-4.7341
X5.353Y-4.8341
X5.353Y-4.9341
X6.4161Y-3.9015
X6.4161Y-4.0015
X6.4161Y-4.6889
X6.4161Y-4.7889
X4.19Y-4.0167
X4.19Y-4.1167
X4.74Y-3.61
X4.74Y-3.71
X4.19Y-3.61
X4.19Y-3.71
X6.42Y-5.04
X6.42Y-5.14
T0
M30
